<?xml version="1.0" encoding="utf-8"?>
<svg width="145px" height="100px" viewBox="0 0 145 100" version="1.1" xmlns:xlink="http://www.w3.org/1999/xlink" xmlns="http://www.w3.org/2000/svg">
  <desc>Created with Lunacy</desc>
  <defs>
    <path d="M0 0L29.6039 0L29.6039 26.3496L0 26.3496L0 0Z" transform="translate(0.07739449 0.1949186)" id="path_1" />
    <path d="M0 0L41.3797 0L41.3797 15.907L0 15.907L0 0Z" transform="translate(0.1654894 0.01129609)" id="path_2" />
    <clipPath id="mask_1">
      <use xlink:href="#path_1" />
    </clipPath>
    <clipPath id="mask_2">
      <use xlink:href="#path_2" />
    </clipPath>
  </defs>
  <g id="Logo/wordmark/gold">
    <g id="Logotype" transform="translate(9 0)">
      <g id="Group-16" transform="translate(0.3959731 30.20134)">
        <path d="M18.807 14.9463C18.7943 14.8724 18.7847 14.7963 18.7789 14.7177C18.7709 14.5975 18.3104 3.04986 18.2777 2.07204C18.2468 1.14274 18.7273 0.584777 19.5994 0.544344C19.727 0.538812 19.834 0.538812 19.9075 0.540301L19.9075 0.00595842L14.8825 0L10.0656 12.4993L5.3268 0L0.232095 0.00595842L0.232095 0.544344L0.315263 0.544344C0.867993 0.544344 1.58212 0.778213 1.90963 1.11593C2.20834 1.42385 2.14323 1.88839 2.12561 2.36911L1.83226 14.9782C1.77338 16.2952 0.717991 16.6306 0.0820929 16.6306L0 16.6306L0 17.1813L4.79298 17.1813L4.79298 17.1383L4.79341 17.1383L4.79341 16.6306L4.6894 16.6306C4.19276 16.6306 2.84661 16.3333 2.90463 14.8856L3.17046 3.40843L8.57119 17.1935L9.35623 17.1888L15.135 2.29591L15.3342 15.4166C15.3363 15.7505 15.23 16.0256 15.0151 16.2401C14.7262 16.5272 14.3003 16.6306 14.0246 16.6306L13.9345 16.6306L13.9345 17.1383L13.9399 17.1383L13.9399 17.1813L20.7715 17.1813L20.7715 16.6306L20.6885 16.6306C19.9929 16.6306 19.0189 16.0762 18.807 14.9463" transform="translate(0.07715018 0.1520887)" id="Fill-2" fill="#FFFFFF" stroke="none" />
        <path d="M6.05038 10.1302C7.34238 6.70684 8.83574 2.95644 8.89462 2.80812L11.3271 10.1191L6.05038 10.1302ZM19.2974 16.6246L19.1096 16.6246C18.0162 16.6246 17.025 16.0433 16.5658 15.1567C16.5361 15.0972 16.5089 15.0361 16.4841 14.9739L10.9396 0L6.5612 0L6.5612 0.506891L6.5612 0.538386L6.63921 0.538386C7.16723 0.538386 7.82462 0.662023 8.05972 1.01698C8.07606 1.04209 8.08873 1.06826 8.10163 1.09443C8.20607 1.34065 8.15471 1.63112 8.0262 1.92606L3.1868 14.7633C2.60763 15.9752 1.75748 16.6246 0.16698 16.6246L0 16.6246L0 17.1743L6.18426 17.1743L6.18426 16.6246L5.8675 16.6246C5.73254 16.6246 4.54756 16.6074 4.12485 16.0105C4.10529 15.9824 4.09025 15.9541 4.078 15.9256C4.01331 15.7211 4.11195 15.5008 4.21747 15.2153C4.31246 14.9552 4.94814 13.3045 5.76843 11.1257L11.5068 11.1148L12.9483 15.2346C13.0994 15.617 13.0822 15.9813 12.8942 16.2542C12.7345 16.4878 12.2811 16.6225 11.9796 16.6246L11.8498 16.6246L11.8498 17.1324L11.8693 17.1324L11.8693 17.1743L19.3213 17.1743L19.3213 16.6663L19.2974 16.6663L19.2974 16.6246Z" transform="translate(22.28493 0.1580471)" id="Fill-4" fill="#FFFFFF" stroke="none" />
        <path d="M17.9683 16.6206C17.1639 16.6206 16.1745 16.1346 15.562 15.4698C15.487 15.3855 15.4171 15.2993 15.3557 15.2106L10.0153 8.0245L10.1022 7.9713C12.5497 6.50681 13.9988 5.04955 14.0355 3.64017C14.0557 2.84813 13.7286 2.0863 13.0904 1.43662C13.082 1.42811 13.0723 1.42066 13.0637 1.41236C13.0612 1.40981 13.059 1.40683 13.0566 1.40427C12.0298 0.363251 9.99578 0 7.53256 0L0.433889 0L0.433889 0.505827L0.459463 0.505827L0.459463 0.537535L0.581742 0.537535C1.09966 0.550728 1.56256 0.780766 1.87138 1.13082C2.10025 1.40385 2.238 1.74497 2.238 2.11226L2.238 14.745C2.22554 15.8911 1.38806 16.6104 0.0498575 16.6246L0 16.6246L0 17.1324L0 17.1754L7.73522 17.1754L7.73522 16.6663L7.73522 16.6246L7.53579 16.6246C6.97425 16.6246 6.52446 16.4608 6.19931 16.136C6.15568 16.0918 6.11442 16.0448 6.07574 15.9952C5.81871 15.6438 5.68526 15.1672 5.69106 14.5966L5.69106 0.703732L6.07144 0.703732C8.66124 0.703732 9.57221 0.902063 10.195 1.546C10.2356 1.58962 10.2749 1.63495 10.3136 1.68262C10.7845 2.2659 11.0623 2.99645 11.0421 3.59123C10.9306 6.64024 7.24653 8.80889 6.59387 9.16703L12.6825 17.1354L12.6842 17.1354L12.7167 17.1781L18.1834 17.1754L18.1834 16.6214L18.146 16.6225L17.9683 16.6206Z" transform="translate(43.39579 0.1580471)" id="Fill-6" fill="#FFFFFF" stroke="none" />
        <path d="M15.4842 0L12.4137 0L10.3416 0L5.67409 0L0.532315 0L0 3.55739L0.0425508 3.55739L0.555954 3.55739L0.561542 3.52909C0.848007 1.60133 1.96443 0.96718 3.81883 0.96718L5.6483 0.96718L5.64873 0.960796L6.26937 0.96037L6.26937 14.6388C6.26937 15.882 5.38074 16.6244 3.88932 16.6244L3.81818 16.6244L3.81818 17.1322L3.81797 17.1732L3.85708 17.1752L12.1859 17.1752L12.1859 16.6663L12.1859 16.6244L12.0702 16.6244C11.2573 16.6244 10.625 16.402 10.2163 15.9996C9.90252 15.6679 9.73339 15.2212 9.73339 14.6792L9.73339 0.96037L10.4531 0.960796L10.4535 0.96718L12.283 0.96718C13.1897 0.96718 13.9186 1.12061 14.4615 1.50152C15.002 1.90138 15.3497 2.53893 15.4928 3.4961L15.4999 3.55739L15.5448 3.55739L16.0571 3.55739L15.5267 0L15.4842 0Z" transform="translate(60.59253 0.1581535)" id="Fill-8" fill="#FFFFFF" stroke="none" />
        <path d="M14.0265 13.608L14.0224 13.6352C13.7342 15.5634 12.6185 16.1967 10.7677 16.1967L8.93803 16.1967L6.09422 16.1967L6.09422 8.56842L9.62894 8.56693C9.90724 8.57204 10.1602 8.64141 10.371 8.77101C10.7168 9.01041 10.934 9.42665 10.9323 10.0127L10.9323 10.0674L10.9323 10.104L11.499 10.104L11.499 6.28592L11.444 6.28592L10.9323 6.28592L10.9231 6.35785C10.9291 7.00647 10.3856 7.55868 9.63346 7.57081L6.09422 7.57081L6.09422 0.972074L10.036 0.972074C10.7366 0.991439 11.326 1.11061 11.796 1.37001C12.4519 1.75539 12.8684 2.42572 13.0274 3.4961L13.0315 3.55739L13.6029 3.55739L13.073 0L13.0193 0L10.2642 0L7.87877 0L0.554879 0L0.554879 0.505827L0.554879 0.537535L0.635253 0.537535C1.10654 0.539024 1.52968 0.649894 1.86579 0.852693C1.96873 0.919512 2.0635 0.994205 2.14731 1.07847C2.46193 1.39725 2.62547 1.83115 2.61773 2.33379L2.61773 14.6367C2.61773 15.8254 1.32402 16.6244 0.115618 16.6244L0 16.6244L0 17.1324L0 17.1754L8.92599 17.1754L14.0718 17.1754L14.6085 13.608L14.5384 13.608L14.0265 13.608Z" transform="translate(78.58766 0.158111)" id="Fill-10" fill="#FFFFFF" stroke="none" />
        <path d="M13.1209 13.6352C12.8331 15.5634 11.7178 16.1965 9.86469 16.1965L8.41603 16.1965L8.03608 16.1965L5.94271 16.1965L5.94271 2.30804C5.94271 0.897381 6.7471 0.538173 8.02469 0.538173L8.17276 0.538173L8.17276 0L8.107 0L0 0L0 0.503699L0 0.535407L0.079729 0.535407C0.382742 0.537535 1.02401 0.511786 1.57245 0.784809C2.05555 1.04932 2.45161 1.56238 2.45161 2.55957L2.45914 14.3958C2.45914 15.8526 1.63971 16.6244 0.0889699 16.6244L0 16.6244L0 17.1322L0 17.1752L8.03566 17.1752L8.2815 17.1752L13.1804 17.1752L13.7072 13.608L13.1252 13.608L13.1209 13.6352Z" transform="translate(95.41939 0.1581961)" id="Fill-12" fill="#FFFFFF" stroke="none" />
        <path d="M13.5748 13.608L13.0618 13.608L13.0599 13.6352C12.7702 15.5634 11.6561 16.1967 9.80259 16.1967L8.1848 16.1967L7.97419 16.1967L5.95389 16.1967L5.95282 2.30804C5.95282 0.897381 6.75569 0.538386 8.0363 0.538386L8.18286 0.538386L8.18286 0L8.10722 0L0 0L0 0.53562L0.0704882 0.53562L0.0893997 0.53562C0.372642 0.537535 0.949012 0.515404 1.46994 0.733524C1.99752 0.980586 2.44968 1.49344 2.44968 2.55957L2.45849 14.3958C2.45849 15.8526 1.63864 16.6244 0.0874656 16.6244L0 16.6244L0 17.1811L0.00451296 17.1811L7.98279 17.1754L8.32556 17.1754L13.1289 17.1754L13.6633 13.608L13.5748 13.608Z" transform="translate(111.7628 0.158111)" id="Fill-14" fill="#FFFFFF" stroke="none" />
      </g>
      <g id="Group-58" transform="translate(0.3959731 61.07383)">
        <g id="Group-19" transform="translate(47.87241 11.86949)">
          <path d="M0 0L29.6039 0L29.6039 26.3496L0 26.3496L0 0Z" transform="translate(0.07739449 0.1949186)" id="Clip-18" fill="none" stroke="none" />
          <g clip-path="url(#mask_1)">
            <path d="M29.0609 15.2163C28.8177 16.0225 28.3601 16.4317 27.7009 16.4317C27.3091 16.43 26.9895 16.288 26.8776 16.2314L26.8771 16.2303L26.7963 16.1889C26.7922 16.1867 26.7883 16.1848 26.7844 16.1829L26.7689 16.1749C26.4664 15.9854 25.8362 15.1828 25.4507 13.8448C25.4162 13.6452 25.3552 13.335 25.2702 13.0245L25.2665 13.0111L25.2542 12.9636L25.251 12.9643C25.1585 12.4189 25.1156 11.8481 25.1236 11.2667C25.1656 8.25512 25.7754 7.07659 26.302 6.38622C26.3995 6.25911 26.4983 6.15336 26.6037 6.06315L26.6831 5.99884C26.9541 5.78562 27.2567 5.67729 27.5812 5.67729C27.774 5.67729 27.9733 5.71376 28.1792 5.78541C28.8311 6.01352 29.0446 6.82668 29.0096 7.19118C28.9943 7.37484 28.8794 8.28728 28.1132 8.28728L28.0942 8.28598C27.4749 8.27304 27.3209 7.56065 27.2961 7.418L27.239 7.01595L27.2222 6.89661L27.1443 6.98876L26.883 7.29887C26.8332 7.35822 25.6633 8.78019 25.8587 11.3192C26.0538 13.8845 26.8879 14.8578 26.8963 14.8673L27.2666 15.3125L27.377 15.4454L27.3617 15.2732L27.3099 14.6931C27.2903 14.4808 27.3444 14.3027 27.471 14.1642C27.6278 13.9918 27.895 13.889 28.1854 13.889C28.5139 13.889 28.8095 14.0224 28.9762 14.2458C29.1507 14.4819 29.18 14.8174 29.0609 15.2163L29.0609 15.2163ZM26.6279 17.7986C26.6149 17.8767 26.6003 17.954 26.5856 18.0308L26.5763 18.0803C26.4866 18.5606 26.3939 19.0559 26.5528 19.5413C26.3572 19.4793 26.1259 19.3397 25.9779 19.0298L25.5833 18.3653L25.4686 18.1722L25.4832 18.3964L25.5335 19.1628C25.5732 19.4329 25.6241 20.1837 25.3873 20.4598C25.3215 20.5368 25.248 20.6177 25.1688 20.703L25.1606 20.712C24.8035 21.1029 24.3591 21.5895 24.3457 22.1446C24.344 22.2123 24.3438 22.2764 24.3442 22.3351C24.1379 21.9993 24.0415 21.7022 24.0708 21.4864L24.1443 20.9624L24.1661 20.8061L24.0531 20.9162L23.6744 21.2852C23.6345 21.3232 22.7004 22.2061 21.7947 22.3582C21.1642 22.4636 20.7665 22.7868 20.5321 23.0672C20.4409 22.7799 20.3857 22.3878 20.5537 22.0058L20.6464 21.7932L20.6738 21.7302L20.6061 21.7186L20.3769 21.6791C20.2294 21.648 19.4972 21.4672 19.2575 20.8827C19.0021 20.2658 18.992 19.4064 19.5734 18.9767C19.7636 18.8354 19.9686 18.7607 20.1662 18.7607C20.2214 18.7607 20.2768 18.7663 20.3307 18.7778C20.5517 18.8241 20.7452 18.967 20.8612 19.1699C21.1215 19.6237 20.9371 20.0474 20.7368 20.3227L20.533 20.6016L20.4728 20.6842L20.5748 20.6874L20.9211 20.6982C20.9298 20.6984 20.9494 20.6989 20.9787 20.6989C21.211 20.6989 22.0369 20.6749 22.9134 20.3683C24.0445 19.9725 24.8074 19.2795 25.1811 18.3088C25.4964 17.4935 25.6422 16.5422 25.6154 15.4778C25.9367 16.0471 26.2671 16.4002 26.4881 16.551C26.5748 16.8346 26.7016 17.3569 26.6279 17.7986L26.6279 17.7986ZM14.759 25.5697C13.4114 23.8195 11.1679 22.3423 10.1839 21.7423C10.4563 21.5533 10.6523 21.3176 10.7676 21.0407C10.8 20.9667 10.8289 20.8879 10.8546 20.8029L14.7135 23.6136L14.7445 23.6365L14.7762 23.614L18.7296 20.8014C18.7565 20.8948 18.7878 20.9831 18.8227 21.0647C18.9312 21.3273 19.1128 21.5539 19.3625 21.7386C16.9788 23.0421 15.1189 25.1473 14.759 25.5697L14.759 25.5697ZM9.21287 21.6497L9.20878 21.6502L9.1995 21.653L8.97955 21.6871L8.91119 21.6981L8.93879 21.762L9.0313 21.9756C9.1967 22.3578 9.13912 22.7501 9.04618 23.0378C8.81523 22.7551 8.42061 22.4288 7.78748 22.3203C6.86109 22.1601 5.92434 21.2477 5.91528 21.2386L5.53597 20.8685L5.42405 20.7593L5.44497 20.9143L5.5157 21.4385C5.54395 21.6523 5.44605 21.9484 5.23795 22.284C5.2386 22.2253 5.23817 22.1623 5.23687 22.0945C5.2276 21.5354 4.78058 21.0431 4.42153 20.6477C4.34455 20.5625 4.27059 20.4803 4.20525 20.4028C3.98141 20.1382 3.96718 19.3283 4.01052 19.0408L3.98335 18.2292L3.973 17.9342L3.87833 18.2138L3.61913 18.9787C3.4725 19.2797 3.24111 19.4178 3.04509 19.4796C3.20661 18.9931 3.11561 18.4987 3.0272 18.0196C3.0203 17.9767 3.01275 17.9326 3.00499 17.8888C2.99614 17.8375 2.9873 17.7868 2.97932 17.7363C2.90601 17.2932 3.04078 16.7606 3.132 16.4714C3.41147 16.2724 3.72782 15.8762 4.00276 15.3854C3.96912 16.4667 4.1095 17.4307 4.42024 18.254C4.79567 19.2417 5.57306 19.9446 6.73062 20.3428C7.60268 20.6428 8.40982 20.6661 8.63646 20.6661L8.6673 20.6659L9.01599 20.6577L9.11864 20.6551L9.05847 20.572L8.85577 20.2919C8.65652 20.015 8.47452 19.5903 8.73825 19.1388C8.85469 18.9372 9.04877 18.7954 9.27066 18.7493C9.32242 18.7389 9.3759 18.7337 9.42895 18.7337C9.63079 18.7337 9.83133 18.8067 10.0254 18.9508C10.6033 19.3859 10.5902 20.2453 10.3333 20.859C10.0897 21.4408 9.35714 21.6197 9.21287 21.6497L9.21287 21.6497ZM2.80875 16.1209L2.80746 16.1218L2.73975 16.1576C2.62481 16.217 2.30048 16.3635 1.90478 16.3635C1.23586 16.3635 0.778918 15.9519 0.54085 15.1403C0.423541 14.7408 0.454593 14.4057 0.630988 14.1711C0.796385 13.951 1.09074 13.8195 1.41851 13.8195C1.71243 13.8195 1.97896 13.9236 2.13595 14.0973C2.25692 14.2319 2.35116 14.5693 2.3296 14.7907L2.24032 15.1999L2.19396 15.4126L2.33412 15.2463L2.70805 14.8021C2.74233 14.7622 3.55681 13.7854 3.76275 11.2611C3.97235 8.71328 2.80961 7.29585 2.76002 7.2365L2.50103 6.92488L2.42405 6.83251L2.40615 6.95142L2.34577 7.35175C2.33995 7.38628 2.19935 8.20549 1.54595 8.21649L1.5259 8.21649C0.790778 8.21433 0.65514 7.37505 0.631203 7.11781C0.600151 6.75288 0.820537 5.93971 1.47113 5.71527C1.67124 5.64599 1.86726 5.61082 2.05379 5.61082C2.39774 5.61082 2.71516 5.72886 2.99722 5.96172L3.03539 5.9915C3.14925 6.09142 3.25146 6.2017 3.34548 6.32644C3.86841 7.01875 4.47199 8.19944 4.49766 11.2121C4.50412 11.8622 4.44655 12.4964 4.3273 13.0977C4.30272 13.1885 4.26325 13.3473 4.21926 13.566C3.8214 15.0876 3.10677 15.9394 2.8232 16.1129L2.80875 16.1209ZM3.93936 5.68959L3.93936 6.35514C3.86626 6.24076 3.79294 6.13717 3.72113 6.042C3.65407 5.95374 3.5801 5.86784 3.50053 5.78541C3.59606 5.75476 3.73989 5.71872 3.93936 5.68959L3.93936 5.68959ZM4.81788 13.0305C4.92333 12.4431 4.97444 11.8302 4.96948 11.2072C4.94727 8.6589 4.51491 7.34462 4.05042 6.53815L4.05042 5.67513C4.16837 5.6611 4.30164 5.64945 4.45539 5.64276C4.69475 5.63153 4.91039 5.60391 5.10792 5.55859L5.10792 18.5727C5.01433 18.4238 4.93002 18.2641 4.86252 18.0865C4.24902 16.4733 4.49334 14.5887 4.69367 13.6089C4.72947 13.4652 4.7588 13.335 4.78273 13.214C4.79912 13.1499 4.81141 13.1056 4.81508 13.0916L4.83125 13.034L4.81788 13.0305ZM6.27735 7.84206L6.27735 9.96131L6.0451 10.1933L6.27735 10.1933L6.27735 19.6272C5.881 19.4176 5.50815 19.1291 5.21898 18.7357L5.21898 5.52902C5.50535 5.45047 5.75377 5.33178 5.97825 5.16474C6.00542 5.37321 6.07896 5.54176 6.19713 5.66714C6.22149 5.69304 6.24974 5.71376 6.27735 5.73512L6.27735 7.60597L6.041 7.60597L6.27735 7.84206ZM9.89495 7.60489L9.89495 4.14181C9.90789 4.13209 9.92233 4.12109 9.93462 4.11181L9.97085 4.08462C10.3553 3.79586 10.4162 3.73501 10.7178 3.11369C10.7556 3.03643 10.8319 2.95442 10.9341 2.87306L10.9341 7.60468L9.89495 7.60489ZM9.03885 6.75914C9.27174 6.75914 9.46108 6.94883 9.46108 7.1819C9.46108 7.41519 9.27174 7.60467 9.03885 7.60467C8.80596 7.60467 8.61641 7.41519 8.61641 7.1819C8.61641 6.94883 8.80596 6.75914 9.03885 6.75914L9.03885 6.75914ZM9.62583 5.65096L9.29891 5.15028C9.29223 5.08877 9.25837 4.63773 9.71596 4.28014C9.74055 4.26028 9.76211 4.24388 9.78475 4.22619L9.78475 6.86531C9.66141 6.57483 9.37353 6.37068 9.03885 6.37068C8.92779 6.37068 8.82213 6.39312 8.72574 6.43391L8.72574 5.25171C8.84779 5.35292 8.94246 5.40191 8.97028 5.41486L9.55531 5.728L9.74098 5.82727L9.62583 5.65096ZM8.40271 4.90361C8.47516 5.00375 8.5474 5.08446 8.61555 5.15179L8.61555 6.49326C8.38416 6.63634 8.22847 6.89035 8.22847 7.1819C8.22847 7.33772 8.2744 7.48188 8.35074 7.60532L7.55653 7.60554L7.55653 4.61399C7.82242 4.46595 8.06264 4.32136 8.26125 4.16252C8.23904 4.43487 8.24831 4.69276 8.40271 4.90361L8.40271 4.90361ZM6.38732 9.85146L6.38732 7.95213L7.33809 8.90169L6.38732 9.85146ZM7.44655 10.1933L7.44655 20.0493C7.1108 19.9738 6.74335 19.857 6.38732 19.6829L6.38732 10.1933L7.44655 10.1933ZM7.11662 4.99015C7.14358 4.88376 7.21711 4.80045 7.34779 4.72924C7.38165 4.71089 7.41334 4.69298 7.44655 4.67485L7.44655 5.78195L7.40688 5.72498L7.25118 5.49903C7.24816 5.4945 7.06314 5.22387 7.11662 4.99015L7.11662 4.99015ZM6.79445 5.89978C6.8902 5.89978 6.995 5.88813 7.10562 5.86547L7.37388 5.80807L7.44655 5.79274L7.44655 7.60554L6.38732 7.60597L6.38732 5.80569C6.50355 5.8659 6.63811 5.89978 6.79445 5.89978L6.79445 5.89978ZM9.76233 9.80463L7.55653 9.80463L7.55653 9.80334L7.44655 9.80334L7.44655 9.80463L6.98357 9.80463L7.88754 8.90169L6.97904 7.99421L10.682 7.99335L10.682 9.80463L9.87252 9.80463L9.76233 9.80463ZM9.09298 15.7288C9.32587 15.7288 9.5152 15.9185 9.5152 16.1516C9.5152 16.3849 9.32587 16.5748 9.09298 16.5748C8.85987 16.5748 8.67032 16.3849 8.67032 16.1516C8.67032 15.9185 8.85987 15.7288 9.09298 15.7288L9.09298 15.7288ZM9.77807 15.2545L9.77936 15.7249C9.72136 15.6321 9.64631 15.5512 9.55682 15.4882C9.59025 15.4616 9.62367 15.4351 9.65537 15.4027C9.69893 15.3583 9.73904 15.3073 9.77807 15.2545L9.77807 15.2545ZM9.57817 10.1933L9.7634 10.1933L9.76556 11.0006C9.68944 10.664 9.62173 10.3765 9.57817 10.1933L9.57817 10.1933ZM8.2785 13.6368C8.22502 12.7407 8.81911 10.6787 8.96338 10.1933L9.17902 10.1933C9.2767 10.6016 9.60858 12.0096 9.77139 12.9431L9.77527 14.3211C9.68836 14.6536 9.54475 14.9605 9.37805 15.1308C9.28317 15.2279 9.18721 15.2769 9.09319 15.2769C8.6576 15.2762 8.33758 14.6325 8.2785 13.6368L8.2785 13.6368ZM8.25284 20.1738C8.06156 20.1572 7.82048 20.1257 7.55653 20.0717L7.55653 10.1933L8.5584 10.1933C8.36777 10.8427 7.83665 12.7491 7.89099 13.6598C7.94576 14.5809 8.20281 15.2286 8.60369 15.5087C8.40961 15.6574 8.28238 15.8887 8.28238 16.1516C8.28238 16.4198 8.41457 16.6566 8.61555 16.8042L8.61555 18.5628C8.50406 18.6573 8.40681 18.7704 8.33111 18.9005C8.09801 19.3017 8.07148 19.74 8.25284 20.1738L8.25284 20.1738ZM9.42657 18.2633C9.34247 18.2633 9.25816 18.2717 9.17621 18.2881C9.01384 18.3211 8.86159 18.3874 8.72574 18.4795L8.72574 16.8711C8.83636 16.9283 8.96014 16.9634 9.09298 16.9634C9.38495 16.9634 9.6392 16.8063 9.78195 16.5737L9.78691 18.3181C9.66766 18.2851 9.54733 18.2633 9.42657 18.2633L9.42657 18.2633ZM9.89063 16.0245L9.88783 15.0833C10.1341 14.6532 10.2594 14.0723 10.2508 13.6456C10.2428 13.2621 10.0582 12.3307 9.87748 11.5028L9.8736 10.1933L10.9341 10.1933L10.9341 19.6377C10.8552 19.1971 10.6432 18.8248 10.3094 18.5742C10.1783 18.4765 10.0394 18.4027 9.89732 18.3504L9.89128 16.2716C9.8971 16.2321 9.90336 16.1926 9.90336 16.1516C9.90336 16.1082 9.8971 16.0661 9.89063 16.0245L9.89063 16.0245ZM12.1033 4.32503L12.1033 11.7424L11.6837 11.7424L12.1033 12.1619L12.1033 13.9147L11.6878 14.3299L12.1033 14.3299L12.1033 21.129L11.0452 20.3579L11.0452 10.1933L11.07 10.1933L11.07 7.60467L11.0452 7.60467L11.0452 2.79214C11.3119 2.6128 11.6988 2.44533 12.1033 2.35081L12.1033 3.76565C12.0841 3.85499 12.0736 3.94736 12.0731 4.0421C12.0729 4.13835 12.0837 4.23288 12.1033 4.32503L12.1033 4.32503ZM13.3521 2.71466L13.3521 2.38987C13.4968 2.45957 13.6232 2.56446 13.6991 2.72739C13.7004 2.73063 13.7019 2.73365 13.7032 2.73689C13.615 2.72135 13.5177 2.71272 13.409 2.71185C13.3898 2.71185 13.3713 2.7138 13.3521 2.71466L13.3521 2.71466ZM2.43591 4.05332C1.79071 3.46309 1.5824 2.66761 1.86489 1.87106C2.11611 1.16623 2.66319 0.728355 3.29265 0.728355C3.78561 0.72965 4.13085 0.845971 4.32169 1.0743C4.49766 1.28493 4.51728 1.559 4.51663 1.74654C4.51491 2.47058 3.94863 3.07377 3.22796 3.11995L2.92563 3.13894L2.83614 3.14434L2.88293 3.22095L3.04143 3.47884C3.17038 3.67264 3.63509 4.28683 4.42326 4.38847C4.49528 4.39775 4.56882 4.4025 4.6417 4.4025C5.21919 4.4025 5.81695 4.11181 6.41838 3.53862C8.55323 1.50311 10.3558 0.471111 11.776 0.471111C11.826 0.471111 11.8754 0.472622 11.9244 0.474995C12.6485 0.513625 13.2766 0.842302 13.7918 1.45131C14.9431 2.80854 14.7042 3.94714 14.0965 4.56047L14.0821 4.57515C13.9529 4.73981 13.7739 4.84944 13.5736 4.88894L13.5639 4.89088L13.5639 4.89088L13.5531 4.89304C13.502 4.9021 13.4502 4.90685 13.3991 4.90685C13.1727 4.90685 12.9588 4.81707 12.7966 4.65457C12.6329 4.49012 12.5435 4.27302 12.5441 4.04296C12.5456 3.56883 12.9323 3.18318 13.4062 3.18318C13.6128 3.18318 13.7573 3.21965 13.8768 3.30123L14.1172 3.46136L14.1884 3.50884L14.2004 3.42424L14.2421 3.137C14.2518 3.06837 14.2807 2.86443 14.1267 2.52928C13.9083 2.05817 13.4407 1.80589 12.7751 1.79941C12.7703 1.79898 12.7621 1.79898 12.7541 1.79898C11.7669 1.79898 10.5742 2.33721 10.2941 2.90673C10.0295 3.45057 10.0233 3.45553 9.68879 3.70717L9.66507 3.72508C9.59822 3.77536 9.51908 3.83492 9.42528 3.90744C9.07896 4.17849 8.93168 4.49249 8.87043 4.73593C8.84003 4.70161 8.81092 4.66493 8.7831 4.6263C8.69037 4.50048 8.72186 4.2359 8.76154 3.90075C8.77663 3.77471 8.79561 3.6066 8.80876 3.42316L8.82601 2.72653L8.83097 2.52237L8.72574 2.6974L8.3626 3.30296C8.17089 3.7227 7.767 3.96484 7.12395 4.31467C6.87273 4.45084 6.71639 4.6427 6.65946 4.88462C6.61288 5.08208 6.6476 5.27459 6.69591 5.42047C6.62798 5.40903 6.57601 5.38357 6.5387 5.34408C6.39315 5.18999 6.43606 4.80563 6.4794 4.64356L6.48113 4.6373L6.48134 4.63104L6.49708 4.07965L6.5014 3.92664L6.40199 4.0434L6.07572 4.4271C5.70007 4.857 5.29424 5.13172 4.43361 5.17057C4.03144 5.18977 3.74658 5.23703 3.56048 5.28063C3.66463 5.00418 3.81925 4.93749 3.82097 4.93684L3.83219 4.9349L3.83413 4.93059L4.3273 4.6004L4.46423 4.50846L4.29948 4.50156L3.73709 4.4776L3.7317 4.47739L3.72609 4.47825L3.72566 4.47825C3.72264 4.47825 3.70323 4.47911 3.67304 4.47911C3.49212 4.47911 2.86805 4.44847 2.43591 4.05332L2.43591 4.05332ZM15.2491 4.88656C15.3261 4.98368 15.419 5.06482 15.5191 5.13625L15.5191 11.7415L15.3699 11.7415C15.4458 11.6181 15.4919 11.4741 15.4919 11.3185C15.4919 10.8712 15.1284 10.5073 14.6813 10.5073C14.6153 10.5073 14.5522 10.5174 14.4907 10.5323L14.4907 4.82592C14.6302 4.67334 14.7518 4.49595 14.8437 4.30431C14.9487 4.52098 15.0872 4.7206 15.2491 4.88656L15.2491 4.88656ZM15.6293 11.7415L15.6293 5.20941C15.7546 5.28084 15.8904 5.33415 16.0343 5.36134L16.0981 5.37343L16.0981 5.37192C16.1585 5.38076 16.2199 5.3853 16.2814 5.3853C16.4123 5.3853 16.5382 5.36566 16.6575 5.3307L16.6575 11.7413L15.6293 11.7415ZM15.6293 19.0246C15.8093 18.6245 15.9006 18.1472 15.8932 17.7822C15.887 17.4769 15.7684 16.8234 15.6293 16.1518L15.6293 14.3299L16.6575 14.3299L16.6575 21.6985L15.6293 22.4303L15.6293 19.0246ZM14.6813 10.8958C14.9142 10.8958 15.1036 11.0855 15.1036 11.3185C15.1036 11.5518 14.9142 11.7413 14.6813 11.7413C14.4484 11.7413 14.2591 11.5518 14.2591 11.3185C14.2591 11.0855 14.4484 10.8958 14.6813 10.8958L14.6813 10.8958ZM13.6497 5.3553C13.9326 5.30243 14.1869 5.15524 14.3805 4.94375L14.3805 10.5667C14.0825 10.6866 13.8709 10.9778 13.8709 11.3185C13.8709 11.4741 13.9171 11.6183 13.9932 11.7419L13.3521 11.7419L13.3521 5.37515C13.3687 5.3758 13.3849 5.37774 13.4015 5.37774C13.463 5.37774 13.5246 5.37364 13.5859 5.36501L13.5859 5.3663L13.6497 5.3553ZM12.2135 13.8046L12.2135 12.2718L12.9806 13.0383L12.2135 13.8046ZM13.2419 14.3299L13.2419 21.9588L12.2135 21.2095L12.2135 14.3299L13.2419 14.3299ZM12.2135 3.45489L12.2135 2.32772C12.394 2.29168 12.5758 2.27031 12.7496 2.27031L12.7699 2.27031C12.918 2.27225 13.0856 2.29168 13.2419 2.34455L13.2419 2.72329C12.7899 2.78027 12.4085 3.06319 12.2135 3.45489L12.2135 3.45489ZM12.4613 4.98519C12.6744 5.19927 12.9471 5.33113 13.2419 5.36695L13.2419 11.7419L12.2135 11.7422L12.2135 4.63881C12.2765 4.76506 12.3589 4.88203 12.4613 4.98519L12.4613 4.98519ZM12.626 13.9413L13.53 13.0383L12.6215 12.1306L16.3245 12.13L16.3245 13.9413L12.626 13.9413ZM15.2206 14.3299L15.5191 14.3299L15.5191 15.6351C15.4009 15.0941 15.2847 14.599 15.2206 14.3299L15.2206 14.3299ZM15.1995 19.6248C15.2329 19.5983 15.2664 19.5717 15.2981 19.5393C15.3809 19.4547 15.4531 19.3505 15.5191 19.2383L15.5191 20.0914C15.471 19.8997 15.3565 19.7351 15.1995 19.6248L15.1995 19.6248ZM14.4907 21.058C14.5683 21.083 14.6496 21.1001 14.7355 21.1001C15.1141 21.1001 15.4307 20.8374 15.5191 20.4852L15.5191 22.5087L14.7488 23.057L14.4907 22.8688L14.4907 21.058ZM14.313 20.2882C14.313 20.0551 14.5023 19.8654 14.7355 19.8654C14.9683 19.8654 15.1577 20.0551 15.1577 20.2882C15.1577 20.5215 14.9683 20.7114 14.7355 20.7114C14.5023 20.7114 14.313 20.5215 14.313 20.2882L14.313 20.2882ZM14.6061 14.3299L14.8217 14.3299C14.9509 14.8714 15.4926 17.1708 15.5053 17.7902C15.5159 18.3209 15.2987 18.9836 15.0207 19.2674C14.9256 19.3645 14.8297 19.4135 14.7357 19.4135C14.3001 19.4129 13.9803 18.7691 13.921 17.7734C13.8677 16.8773 14.4616 14.8153 14.6061 14.3299L14.6061 14.3299ZM13.5335 17.7965C13.5882 18.7175 13.8455 19.3652 14.2464 19.6453C14.0523 19.794 13.9249 20.0253 13.9249 20.2882C13.9249 20.6076 14.1118 20.8821 14.3805 21.0144L14.3805 22.7886L13.3521 22.0393L13.3521 14.3299L14.2011 14.3299C14.0105 14.9793 13.4793 16.8858 13.5335 17.7965L13.5335 17.7965ZM16.6575 2.30333L16.6575 2.77401C16.5404 2.73969 16.417 2.72049 16.2889 2.72027C16.1813 2.72027 16.0843 2.72782 15.9948 2.74336C15.9965 2.73948 15.9985 2.73538 16.0002 2.73128C16.1285 2.45936 16.395 2.3452 16.6575 2.30333L16.6575 2.30333ZM17.7961 8.03931L17.7961 9.76406L17.3665 10.1933L17.7961 10.1933L17.7961 20.8881L16.7679 21.62L16.7679 5.29293C17.2643 5.09892 17.6166 4.61874 17.6177 4.05678C17.6184 3.49049 17.2649 3.00622 16.7679 2.81177L16.7679 2.29016C16.8235 2.28498 16.8785 2.28175 16.9305 2.28153L16.946 2.28153C17.2218 2.28196 17.517 2.33548 17.7961 2.41943L17.7961 7.60597L17.3624 7.60597L17.7961 8.03931ZM20.0732 6.42571C19.7679 6.54225 19.5496 6.83596 19.5496 7.1819C19.5496 7.33772 19.5956 7.48188 19.6719 7.60532L19.045 7.60554L19.045 3.27123C19.2907 3.77212 19.3636 3.83967 19.7196 4.10965C19.7912 4.16295 19.8748 4.22597 19.9732 4.30582C20.01 4.33495 20.0426 4.36474 20.0732 4.39452L20.0732 6.42571ZM20.36 6.75914C20.5929 6.75914 20.7823 6.94883 20.7823 7.1819C20.7823 7.41519 20.5929 7.60467 20.36 7.60467C20.1271 7.60467 19.9378 7.41519 19.9378 7.1819C19.9378 6.94883 20.1271 6.75914 20.36 6.75914L20.36 6.75914ZM20.1834 5.86828L20.1834 4.51731C20.4269 4.83455 20.3913 5.14963 20.3853 5.1915L20.2285 5.71678L20.1834 5.86828ZM20.3141 5.77397L20.7201 5.44162C20.7667 5.42026 20.9791 5.31106 21.212 5.03029L21.212 7.60489L21.0486 7.60511C21.1245 7.48145 21.1706 7.3375 21.1706 7.1819C21.1706 6.73453 20.8071 6.37068 20.36 6.37068C20.2992 6.37068 20.2406 6.37866 20.1834 6.39118L20.1834 5.88101L20.3141 5.77397ZM17.9062 7.60575L17.9062 2.45375C18.3725 2.60999 18.7757 2.84803 18.9346 3.06341L18.9346 7.60554L17.9062 7.60575ZM17.9062 9.654L17.9062 8.14959L18.6593 8.90169L17.9062 9.654ZM18.6338 20.2919L17.9062 20.8096L17.9062 10.1933L18.9346 10.1933L18.9346 18.9785C18.6966 19.33 18.5877 19.7843 18.6338 20.2919L18.6338 20.2919ZM18.3048 9.80463L19.2087 8.90169L18.3004 7.99421L22.0032 7.99335L22.0032 9.80463L18.3048 9.80463ZM20.8993 10.1933L21.212 10.1933L21.212 11.5633C21.0889 10.9972 20.9662 10.473 20.8993 10.1933L20.8993 10.1933ZM20.8782 15.4882C20.9116 15.4616 20.9451 15.4351 20.9768 15.4027C21.0654 15.3121 21.1426 15.2005 21.212 15.0786L21.212 16.0245C21.1767 15.8035 21.054 15.6118 20.8782 15.4882L20.8782 15.4882ZM20.1834 18.2913L20.1834 16.9259C20.2572 16.9477 20.3335 16.9634 20.4142 16.9634C20.8176 16.9634 21.1504 16.6658 21.212 16.2787L21.212 18.8449C21.0249 18.5732 20.7449 18.3824 20.4277 18.3166C20.3477 18.3004 20.2656 18.2922 20.1834 18.2913L20.1834 18.2913ZM19.9917 16.1516C19.9917 15.9185 20.1813 15.7288 20.4142 15.7288C20.647 15.7288 20.8364 15.9185 20.8364 16.1516C20.8364 16.3849 20.647 16.5748 20.4142 16.5748C20.1813 16.5748 19.9917 16.3849 19.9917 16.1516L19.9917 16.1516ZM20.285 10.1933L20.5004 10.1933C20.6298 10.7348 21.1713 13.0342 21.184 13.6536C21.1946 14.1843 20.9774 14.847 20.6994 15.1308C20.6044 15.2279 20.5084 15.2769 20.4144 15.2769C19.9788 15.2762 19.6588 14.6325 19.5997 13.6368C19.5462 12.7407 20.1405 10.6787 20.285 10.1933L20.285 10.1933ZM19.2122 13.6598C19.2663 14.5693 19.518 15.2115 19.91 15.4977L19.91 15.5212C19.7248 15.6701 19.6036 15.8956 19.6036 16.1516C19.6036 16.477 19.7968 16.7561 20.0732 16.8855L20.0732 18.2991C19.803 18.3194 19.5356 18.4184 19.2943 18.5973C19.201 18.6664 19.1197 18.7478 19.045 18.8347L19.045 10.1933L19.8798 10.1933C19.6892 10.8427 19.158 12.7491 19.2122 13.6598L19.2122 13.6598ZM21.3218 19.038L21.3218 14.8584C21.4928 14.4646 21.5793 14.0015 21.5719 13.6456C21.5659 13.3504 21.4551 12.7301 21.3218 12.0825L21.3218 10.1933L22.3506 10.1933L22.3506 20.0361C21.964 20.1365 21.6067 20.1846 21.3418 20.2068C21.5088 19.8113 21.5001 19.4111 21.3218 19.038L21.3218 19.038ZM22.2976 5.86439L22.3506 5.87238L22.3506 7.60467L21.3218 7.60489L21.3218 4.88052C21.44 4.68197 21.449 4.44631 21.4307 4.19748C21.6776 4.3984 21.9903 4.57623 22.3394 4.76808C22.3437 4.77046 22.3465 4.77283 22.3506 4.7752L22.3506 5.65506L22.2618 5.77958L22.2104 5.85123L22.2976 5.86439ZM22.4606 5.49493L22.4606 4.85613C22.516 4.90771 22.5527 4.96468 22.5682 5.03137C22.6096 5.20855 22.51 5.40968 22.4606 5.49493L22.4606 5.49493ZM22.5906 5.9082C22.6463 5.91619 22.7008 5.9205 22.753 5.9205C23.0316 5.9205 23.2143 5.80591 23.3182 5.70966C23.384 5.64988 23.4409 5.57586 23.4892 5.49061L23.4892 19.5741C23.1547 19.7713 22.7994 19.9101 22.4606 20.0057L22.4606 5.88878L22.5906 5.9082ZM24.6274 5.62873L24.6274 18.3934C24.3785 18.8848 24.0104 19.2454 23.5992 19.5087L23.5992 5.21999C23.6026 5.20768 23.6074 5.19646 23.6108 5.18395C23.8821 5.39414 24.2386 5.54694 24.6274 5.62873L24.6274 5.62873ZM24.9814 13.9173C25.0418 14.2641 25.1057 14.7322 25.1307 15.262L25.1307 16.1505C25.0992 16.8037 24.9905 17.4952 24.7427 18.1392C24.7412 18.1431 24.7393 18.1461 24.7378 18.15L24.7378 12.7025C24.7928 13.1197 24.8725 13.5263 24.9814 13.9173L24.9814 13.9173ZM24.7378 9.67622L24.7378 5.65031C24.901 5.67836 25.0686 5.69498 25.2378 5.69649C25.4502 5.69887 25.6236 5.71484 25.7662 5.73555L25.7662 6.32493C25.3478 6.94063 24.9174 7.88652 24.7378 9.67622L24.7378 9.67622ZM26.1664 5.829C26.0812 5.9136 26.001 6.00445 25.927 6.10006C25.9104 6.12185 25.8934 6.14602 25.8764 6.16868L25.8764 5.7539C26.0044 5.77807 26.1011 5.80569 26.1664 5.829L26.1664 5.829ZM15.9135 1.45693C16.4321 0.851582 17.062 0.526358 17.7868 0.490318C17.8321 0.487944 17.878 0.486865 17.9239 0.486865C19.3405 0.486865 21.1407 1.52857 23.2749 3.58286C23.8551 4.14353 24.4454 4.42818 25.0287 4.42818C25.0878 4.42818 25.1477 4.42516 25.2064 4.41933C26.0443 4.3328 26.5517 3.68256 26.6451 3.55286L26.8267 3.28699L26.8799 3.20908L26.7857 3.20282L26.4687 3.18102C25.7478 3.13074 25.1839 2.5241 25.1854 1.80028C25.1882 1.32938 25.3293 0.788782 26.404 0.788782C27.0441 0.791155 27.5901 1.23184 27.8372 1.93947C28.1162 2.73559 27.9042 3.52977 27.2556 4.11828C26.8256 4.5076 26.2067 4.53781 26.0271 4.53781C25.9896 4.53781 25.9661 4.53652 25.9607 4.53609L25.4235 4.5281L25.2639 4.52573L25.3894 4.62435L25.847 4.98389L25.8533 4.98885L25.8606 4.99166C25.8621 4.99231 26.0124 5.05619 26.1183 5.3225C25.872 5.26121 25.5781 5.22905 25.2428 5.22624C24.5368 5.21697 23.8355 4.90857 23.6471 4.524L23.2485 3.96981L23.1362 3.81421L23.1511 4.00563L23.1998 4.64205C23.2078 4.76765 23.191 5.15438 23.023 5.34127C23.056 5.19538 23.0577 5.05662 23.0282 4.92649C22.9717 4.685 22.816 4.49293 22.5656 4.35502C21.9256 4.00218 21.5234 3.75788 21.3367 3.34331L21.3345 3.33835L21.3313 3.33382L20.925 2.77034L20.8099 2.61086L20.8275 2.80681L20.8862 3.45618C20.8959 3.60207 20.9101 3.75356 20.9313 3.93204L20.933 3.94887C20.9696 4.28985 20.996 4.53652 20.9067 4.65737C20.8782 4.69557 20.8485 4.73226 20.8174 4.767C20.7359 4.43984 20.5509 4.16058 20.2667 3.93571C20.1625 3.85456 20.0765 3.78874 20.0034 3.73414C19.6708 3.48035 19.6646 3.4756 19.4017 2.93047C19.1266 2.35599 17.9336 1.81172 16.9473 1.81042L16.9296 1.81042C16.2622 1.81344 15.7938 2.06313 15.5743 2.53316C15.4667 2.76171 15.4264 2.96694 15.4546 3.14369L15.4934 3.43201L15.5051 3.51812L15.5771 3.46934L15.8193 3.30619C15.9394 3.22634 16.0828 3.19073 16.284 3.19073C16.7627 3.19268 17.1478 3.58049 17.1472 4.05483C17.1455 4.52918 16.7608 4.9157 16.2898 4.9157C16.2348 4.9157 16.179 4.91008 16.1238 4.89929L16.1097 4.8967C15.9126 4.85462 15.7352 4.74413 15.6084 4.58378L15.5954 4.56803C14.9873 3.94866 14.7542 2.80897 15.9135 1.45693L15.9135 1.45693ZM28.1859 13.419L28.1751 13.419C27.7539 13.419 27.3708 13.5748 27.1234 13.8463C27.0626 13.913 27.0113 13.9855 26.9697 14.0623C26.7249 13.5368 26.4325 12.6483 26.3266 11.281C26.2056 9.69198 26.6669 8.56848 26.9899 7.99421C27.1424 8.31102 27.4637 8.74544 28.0809 8.75645L28.1063 8.75796C29.0193 8.75796 29.4159 7.93767 29.4804 7.23543C29.5336 6.65123 29.2063 5.64491 28.3345 5.34019C28.0852 5.25257 27.8357 5.2079 27.5937 5.2079C27.2573 5.2079 26.9386 5.29271 26.6455 5.45953C26.6085 5.27351 26.5496 5.10971 26.4698 4.97094C26.7913 4.91721 27.2179 4.78535 27.57 4.46746C28.3653 3.74817 28.6249 2.77012 28.2821 1.78388C27.967 0.881364 27.2506 0.319613 26.4131 0.317671C25.0131 0.317671 24.7179 1.12372 24.7158 1.80006C24.713 2.60503 25.234 3.31677 25.9939 3.56387C25.8015 3.73198 25.516 3.9137 25.157 3.94952C25.1138 3.95384 25.0707 3.95599 25.0272 3.95599C24.5717 3.95599 24.0924 3.71645 23.6026 3.24361C21.3479 1.07171 19.491 0.0157541 17.9259 0.0157541C17.8711 0.0157541 17.817 0.0170489 17.7631 0.0196386C16.905 0.0612897 16.1619 0.441545 15.5545 1.14983C15.2422 1.51476 15.0054 1.8879 14.8497 2.26125C14.6966 1.88682 14.4622 1.5126 14.1517 1.14681C13.5466 0.433992 12.8061 0.0498519 11.9502 0.0047478C11.8905 0.00151066 11.8299 0 11.7691 0C10.207 0 8.35074 1.04581 6.09448 3.19721C5.58298 3.68494 5.09369 3.93225 4.63976 3.93225C4.58801 3.93225 4.53604 3.92902 4.48515 3.92254C4.12071 3.87571 3.84275 3.66681 3.6821 3.51186C4.45259 3.27447 4.98522 2.56165 4.98781 1.7474C4.9891 1.0689 4.69669 0.259834 3.29632 0.257244C2.45704 0.257244 1.74025 0.815542 1.42239 1.71439C1.07154 2.69696 1.32514 3.67609 2.11848 4.40078C2.47041 4.72147 2.89609 4.85505 3.21631 4.90987C3.13243 5.05532 3.07205 5.22409 3.03604 5.414C2.73155 5.23272 2.3999 5.14078 2.04862 5.14078C1.81055 5.14078 1.56472 5.18395 1.31781 5.26876C0.445321 5.56917 0.112801 6.57311 0.162615 7.1573C0.224504 7.86235 0.618696 8.68588 1.52568 8.68717L1.55221 8.68717C2.17218 8.67725 2.49521 8.24541 2.64875 7.93012C2.96876 8.50525 3.42462 9.63069 3.29481 11.2223C3.18181 12.5868 2.88466 13.4736 2.63753 13.9978C2.5944 13.9177 2.5433 13.8452 2.48486 13.782C2.2373 13.5079 1.85066 13.3497 1.42455 13.3482C0.942159 13.3482 0.508288 13.5496 0.253615 13.8871C0.0664384 14.1381 -0.113622 14.5822 0.0899433 15.2743C0.487802 16.6287 1.39328 16.8335 1.89745 16.835C2.12129 16.835 2.35138 16.799 2.57478 16.7304C2.50793 17.0303 2.4523 17.4346 2.51311 17.8105C2.52152 17.8632 2.53101 17.9156 2.54071 17.968C2.5489 18.0131 2.55731 18.0582 2.56465 18.1036C2.67053 18.6789 2.76174 19.1748 2.44992 19.6239L2.27849 19.8717L2.2276 19.9451L2.31623 19.9561L2.61618 19.993C2.65543 19.9975 2.6977 20.0001 2.74212 20.0001C2.88272 20.0001 3.22753 19.9738 3.56048 19.7465C3.57212 20.0653 3.63444 20.458 3.84534 20.7077C3.91456 20.7889 3.99198 20.8754 4.07327 20.9641C4.39479 21.3191 4.75944 21.722 4.76635 22.1023C4.77476 22.557 4.72925 22.8844 4.70898 23.0042L4.70834 23.0085L4.70726 23.0199L4.59189 23.606L4.55739 23.7832L4.68332 23.6542L5.10706 23.2197C5.11331 23.2137 5.74514 22.5689 5.93663 21.8843C6.38279 22.2421 7.03252 22.6679 7.70726 22.7845C8.51182 22.9241 8.81221 23.504 8.8644 23.619L8.99507 23.952L9.03389 24.0506L9.09082 23.9611L9.28274 23.6587C9.30279 23.6274 9.76729 22.8872 9.55121 22.047C9.59822 22.0319 9.64588 22.0153 9.69375 21.9976C10.5216 22.4886 13.2044 24.171 14.5573 26.0898L14.699 26.2901L14.7413 26.3496L14.7859 26.2916L14.9354 26.0971C14.9558 26.071 17.1075 23.4088 19.8556 22.0106C19.9149 22.0341 19.9753 22.0568 20.031 22.0742C19.8296 22.8462 20.2104 23.5486 20.2904 23.6842L20.4821 23.9919L20.5381 24.0819L20.5776 23.9837L20.7122 23.6516C20.7432 23.5819 21.0399 22.9629 21.8723 22.8227C22.5816 22.7018 23.2667 22.2337 23.6488 21.9307C23.8125 22.5294 24.3106 23.0982 24.465 23.264L24.8937 23.707L25.019 23.8363L24.9853 23.6593L24.8715 23.0618C24.8704 23.0564 24.804 22.6953 24.8169 22.1554C24.8251 21.7788 25.1857 21.3832 25.5039 21.034L25.5156 21.0211L25.5617 20.9708C25.6269 20.8998 25.69 20.8307 25.7459 20.7654C25.9199 20.5612 26.017 20.2383 26.0353 19.8054C26.3697 20.0366 26.7191 20.0631 26.8614 20.0631C26.9047 20.0631 26.9446 20.0609 26.9802 20.0569L27.2795 20.0215L27.3679 20.0111L27.3177 19.9375L27.1478 19.6887C26.837 19.2361 26.9311 18.7408 27.0402 18.1674C27.0471 18.1262 27.0544 18.0857 27.062 18.0449C27.0723 17.9888 27.0827 17.932 27.0917 17.8757C27.1545 17.5032 27.1021 17.0998 27.038 16.8005C27.2606 16.8685 27.4809 16.9028 27.6942 16.9028C28.2025 16.9028 29.1058 16.7015 29.511 15.3522C29.7182 14.6618 29.5399 14.2166 29.3536 13.9648C29.1004 13.6229 28.664 13.419 28.1859 13.419L28.1859 13.419Z" transform="translate(0.07739449 0.1949186)" id="Fill-17" fill="#F2CF93" stroke="none" />
          </g>
        </g>
        <path d="M4.34367 3.29648L4.07217 3.15426C4.05729 3.14563 4.04091 3.1411 4.02473 3.1411C3.98786 3.1411 3.95551 3.1629 3.94063 3.19764C3.63205 3.84658 3.09553 4.17547 2.34618 4.17547C1.2822 4.17547 0.539104 3.4346 0.539104 2.37368C0.539104 1.25709 1.25482 0.506935 2.3203 0.506935C2.96205 0.506935 3.50568 0.806478 3.85093 1.3501C3.86839 1.37665 3.89535 1.39154 3.92511 1.39154C3.94042 1.39154 3.95573 1.38722 3.96953 1.37902L4.25353 1.18522C4.27639 1.17141 4.29213 1.15177 4.29752 1.12954C4.30291 1.10732 4.29795 1.08401 4.28307 1.06049C3.88392 0.396441 3.14772 0 2.31383 0C1.65742 0 1.0657 0.235663 0.647571 0.66426C0.230089 1.09199 0 1.69691 0 2.36699C0 3.06513 0.235481 3.65602 0.680996 4.07598C1.09611 4.46724 1.67359 4.68262 2.30736 4.68262C3.27042 4.68262 3.98743 4.24626 4.38054 3.42079C4.40448 3.37266 4.38981 3.32259 4.34367 3.29648" transform="translate(41.44625 0.1257087)" id="Fill-20" fill="#F2CF93" stroke="none" />
        <path d="M2.33949 4.17569C1.85301 4.17569 1.40059 3.99052 1.06548 3.65451C0.726065 3.31375 0.538888 2.8476 0.538888 2.34131C0.538888 1.24435 1.26258 0.507151 2.33949 0.507151C3.3998 0.507151 4.1401 1.2614 4.1401 2.34131C4.1401 2.85494 3.96155 3.3213 3.63787 3.65451C3.31096 3.99074 2.84992 4.17569 2.33949 4.17569M2.33949 0C1.70141 0 1.11379 0.228757 0.684877 0.643974C0.243244 1.07149 0 1.67425 0 2.34131C0 3.00838 0.243244 3.61135 0.684877 4.03886C1.11379 4.45408 1.70141 4.68284 2.33949 4.68284C2.97758 4.68284 3.5652 4.45408 3.99411 4.03886C4.43596 3.61135 4.6792 3.00838 4.6792 2.34131C4.6792 1.67425 4.43596 1.07149 3.99411 0.643974C3.5652 0.228757 2.97758 0 2.33949 0" transform="translate(48.71531 0.1255361)" id="Fill-22" fill="#F2CF93" stroke="none" />
        <path d="M4.35143 2.32426L3.0317 2.32426C2.97887 2.32426 2.94351 2.37001 2.94351 2.41253L2.94351 2.71034C2.94351 2.75329 2.97219 2.79883 3.02545 2.79883L3.92015 2.79883L3.92015 3.41949C3.63226 3.9001 3.08001 4.17569 2.4044 4.17569C1.87457 4.17569 1.39865 3.9998 1.06376 3.68019C0.720674 3.35259 0.539104 2.9009 0.539104 2.37368C0.539104 1.2573 1.25482 0.507151 2.3203 0.507151C2.96205 0.507151 3.50568 0.806694 3.85092 1.35032C3.87723 1.39046 3.92899 1.40319 3.96953 1.37923L4.25353 1.18544C4.27638 1.17163 4.29213 1.15177 4.29752 1.12976C4.30269 1.10753 4.29795 1.08422 4.28307 1.0607C3.88392 0.396441 3.1475 0 2.31383 0C1.65742 0 1.0657 0.235879 0.647571 0.664476C0.230089 1.09221 0 1.69712 0 2.36721C0 3.06816 0.236559 3.65926 0.68423 4.0762C1.10408 4.46746 1.69645 4.68284 2.35243 4.68284C3.22858 4.68284 3.99648 4.2646 4.40599 3.56408C4.4269 3.52912 4.4269 3.50733 4.4269 3.47431L4.4269 2.41253C4.4269 2.3685 4.40361 2.32426 4.35143 2.32426" transform="translate(56.28079 0.1255145)" id="Fill-24" fill="#F2CF93" stroke="none" />
        <path d="M4.40319 0L4.04738 0C4.0008 0 3.9719 0.0459673 3.9719 0.0884817L3.9719 3.72594L0.438615 0.048557C0.396996 0.00669008 0.373707 0 0.32109 0L0.0754746 0C0.0310524 0 0 0.0364717 0 0.0884817L0 4.46465C0 4.51451 0.0360122 4.55335 0.0819438 4.55335L0.418345 4.55335C0.469452 4.55335 0.506758 4.51602 0.506758 4.46465L0.506758 0.827411L4.05902 4.5048C4.10086 4.54645 4.12393 4.55335 4.17655 4.55335L4.40319 4.55335C4.44761 4.55335 4.47866 4.51688 4.47866 4.46465L4.47866 0.0884817C4.47866 0.0444566 4.45516 0 4.40319 0" transform="translate(63.99477 0.1903219)" id="Fill-26" fill="#F2CF93" stroke="none" />
        <path d="M4.24188 2.85494L1.5565 2.85494L2.89607 0.620451L4.24188 2.85494ZM3.1447 0.0504993C3.12249 0.013596 3.09877 0 3.0578 0L2.76021 0C2.71881 0 2.6953 0.013596 2.67331 0.0502835L0.0215642 4.42624C0.00711617 4.44761 0 4.46897 0 4.49055C0 4.53674 0.0323462 4.55314 0.062536 4.55314L0.444437 4.55314C0.540182 4.55314 0.555924 4.52379 0.594524 4.45322L1.27207 3.3295L4.52653 3.3295L5.20235 4.45063L5.20408 4.45343C5.24268 4.524 5.25863 4.55314 5.35416 4.55314L5.76172 4.55314C5.79191 4.55314 5.82426 4.53674 5.82426 4.49055C5.82426 4.46919 5.81714 4.44761 5.80334 4.42667L3.1447 0.0504993Z" transform="translate(71.45482 0.1904298)" id="Fill-28" fill="#F2CF93" stroke="none" />
        <path d="M4.34367 3.29648L4.07217 3.15426C4.05751 3.14563 4.04091 3.1411 4.02473 3.1411C3.98851 3.1411 3.9553 3.16354 3.94085 3.19764C3.63205 3.84658 3.09553 4.17547 2.34596 4.17547C1.2822 4.17547 0.538888 3.4346 0.538888 2.37368C0.538888 1.25709 1.25503 0.506935 2.3203 0.506935C2.96227 0.506935 3.50568 0.806478 3.85093 1.3501C3.86839 1.37665 3.89535 1.39154 3.92511 1.39154C3.94042 1.39154 3.95551 1.38722 3.96953 1.37902L4.25353 1.18522C4.27639 1.1712 4.29213 1.15177 4.29752 1.12954C4.30291 1.10732 4.29795 1.08401 4.28329 1.06049C3.88392 0.396441 3.1475 0 2.31383 0C1.65742 0 1.06592 0.235663 0.647571 0.66426C0.230089 1.09199 0 1.69691 0 2.36699C0 3.06513 0.235481 3.65602 0.681212 4.07598C1.09589 4.46724 1.67359 4.68262 2.30736 4.68262C3.27063 4.68262 3.98764 4.24626 4.38054 3.42079C4.40469 3.37266 4.39003 3.32281 4.34367 3.29648" transform="translate(79.67186 0.1257087)" id="Fill-30" fill="#F2CF93" stroke="none" />
        <path d="M3.8533 0L0.088413 0C0.0455004 0 0 0.0287026 0 0.0820074L0 4.47134C0 4.52465 0.0455004 4.55335 0.088413 4.55335L0.418344 4.55335C0.461257 4.55335 0.506542 4.52465 0.506542 4.47134L0.506542 2.20319L3.32929 2.20319C3.38255 2.20319 3.41123 2.15766 3.41123 2.11471L3.41123 1.8169C3.41123 1.77287 3.38794 1.72863 3.33576 1.72863L0.506542 1.72863L0.506542 0.474564L3.8533 0.474564C3.90656 0.474564 3.93524 0.429028 3.93524 0.386298L3.93524 0.0884817C3.93524 0.0455357 3.90656 0 3.8533 0" transform="translate(0.01255034 19.00616)" id="Fill-32" fill="#F2CF93" stroke="none" />
        <path d="M2.33949 4.17569C1.85301 4.17569 1.40059 3.99052 1.06548 3.65451C0.726065 3.31375 0.538888 2.8476 0.538888 2.34131C0.538888 1.24435 1.26258 0.507151 2.33949 0.507151C3.3998 0.507151 4.1401 1.2614 4.1401 2.34131C4.1401 2.85494 3.96155 3.3213 3.63787 3.65451C3.31096 3.99074 2.84992 4.17569 2.33949 4.17569M2.33949 0C1.70141 0 1.11379 0.228757 0.684877 0.643974C0.243244 1.07149 0 1.67425 0 2.34131C0 3.00838 0.243244 3.61135 0.684877 4.03886C1.11379 4.45408 1.70141 4.68284 2.33949 4.68284C2.97758 4.68284 3.5652 4.45408 3.99411 4.03886C4.43596 3.61135 4.6792 3.00838 4.6792 2.34131C4.6792 1.67425 4.43596 1.07149 3.99411 0.643974C3.5652 0.228757 2.97758 0 2.33949 0" transform="translate(6.031256 18.94138)" id="Fill-34" fill="#F2CF93" stroke="none" />
        <path d="M4.40318 0L4.04738 0C4.0008 0 3.9719 0.0459673 3.9719 0.0884817L3.9719 3.72594L0.43883 0.048557C0.396996 0.00669008 0.373922 0 0.321306 0L0.0754745 0C0.0310524 0 0 0.0364717 0 0.0884817L0 4.46465C0 4.51451 0.0360121 4.55335 0.0819438 4.55335L0.418345 4.55335C0.469452 4.55335 0.506758 4.51602 0.506758 4.46465L0.506758 0.827411L4.05924 4.5048C4.10107 4.54645 4.12414 4.55335 4.17676 4.55335L4.40318 4.55335C4.44761 4.55335 4.47866 4.51688 4.47866 4.46465L4.47866 0.0884817C4.47866 0.0444566 4.45537 0 4.40318 0" transform="translate(13.59868 19.00616)" id="Fill-36" fill="#F2CF93" stroke="none" />
        <path d="M2.2362 4.07857L0.506758 4.07857L0.506758 0.474564L2.02272 0.474564C2.66166 0.474564 3.12723 0.608797 3.44595 0.884601C3.78257 1.17594 3.94624 1.61641 3.94624 2.23103C3.94624 2.84609 3.77696 3.32108 3.44336 3.64285C3.14793 3.92794 2.73045 4.07857 2.2362 4.07857M2.01603 0L0.088413 0C0.0455004 0 0 0.0284868 0 0.0817916L0 4.47113C0 4.52443 0.0455004 4.55314 0.088413 4.55314L2.2362 4.55314C2.85725 4.55314 3.41921 4.34359 3.8188 3.96268C4.25461 3.54725 4.48513 2.9486 4.48513 2.23103C4.48513 0.792235 3.60833 0 2.01603 0" transform="translate(21.4336 19.00625)" id="Fill-38" fill="#F2CF93" stroke="none" />
        <path d="M3.8533 0L0.088413 0C0.0455004 0 0 0.0287026 0 0.0820074L0 4.47134C0 4.52465 0.0455004 4.55335 0.088413 4.55335L3.8533 4.55335C3.90656 4.55335 3.93524 4.50782 3.93524 4.46465L3.93524 4.16705C3.93524 4.12411 3.90656 4.07857 3.8533 4.07857L0.506542 4.07857L0.506542 2.20319L3.32929 2.20319C3.38255 2.20319 3.41123 2.15766 3.41123 2.11471L3.41123 1.8169C3.41123 1.77287 3.38794 1.72863 3.33597 1.72863L0.506542 1.72863L0.506542 0.474564L3.8533 0.474564C3.90656 0.474564 3.93524 0.429028 3.93524 0.386298L3.93524 0.0884817C3.93524 0.0455357 3.90656 0 3.8533 0" transform="translate(28.91231 19.00616)" id="Fill-40" fill="#F2CF93" stroke="none" />
        <path d="M0.0133698 0.79763L0.0459317 0.888702C0.0580076 0.918915 0.0666333 0.940712 0.101136 0.940712C0.110624 0.940712 0.119681 0.937906 0.130894 0.934669C0.137795 0.932511 0.145558 0.929922 0.156125 0.927548L1.59812 0.493771C1.65419 0.479744 1.6902 0.437661 1.6902 0.386298C1.6902 0.364286 1.6833 0.343137 1.67661 0.323929L1.58604 0.0968983C1.55693 0.0315081 1.51984 0 1.47262 0C1.45213 0 1.42431 0 1.39024 0.0202861L0.0379529 0.693826C0.0109977 0.707422 0 0.723176 0 0.748642C0 0.759864 0.00366591 0.770439 0.00819438 0.782955C0.00970387 0.787272 0.011429 0.792235 0.0133698 0.79763" transform="translate(30.49095 17.76321)" id="Fill-42" fill="#F2CF93" stroke="none" />
        <path d="M3.8533 0L0.088413 0C0.0455004 0 0 0.0287026 0 0.0820074L0 4.47134C0 4.52465 0.0455004 4.55335 0.088413 4.55335L3.8533 4.55335C3.90656 4.55335 3.93524 4.50782 3.93524 4.46465L3.93524 4.16705C3.93524 4.12411 3.90656 4.07857 3.8533 4.07857L0.506542 4.07857L0.506542 2.20319L3.32929 2.20319C3.38255 2.20319 3.41123 2.15766 3.41123 2.11471L3.41123 1.8169C3.41123 1.77287 3.38794 1.72863 3.33597 1.72863L0.506542 1.72863L0.506542 0.474564L3.8533 0.474564C3.90656 0.474564 3.93524 0.429028 3.93524 0.386298L3.93524 0.0884817C3.93524 0.0455357 3.90656 0 3.8533 0" transform="translate(36.00711 19.00616)" id="Fill-44" fill="#F2CF93" stroke="none" />
        <path d="M3.8533 0L0.0881974 0C0.0455004 0 0 0.0287026 0 0.0820074L0 4.47134C0 4.52465 0.0455004 4.55335 0.0881974 4.55335L3.8533 4.55335C3.90656 4.55335 3.93524 4.50782 3.93524 4.46465L3.93524 4.16705C3.93524 4.12411 3.90656 4.07857 3.8533 4.07857L0.506542 4.07857L0.506542 2.20319L3.32907 2.20319C3.38234 2.20319 3.41102 2.15766 3.41102 2.11471L3.41102 1.8169C3.41102 1.77287 3.38773 1.72863 3.33576 1.72863L0.506542 1.72863L0.506542 0.474564L3.8533 0.474564C3.90656 0.474564 3.93524 0.429028 3.93524 0.386298L3.93524 0.0884817C3.93524 0.0455357 3.90656 0 3.8533 0" transform="translate(84.84969 19.00174)" id="Fill-46" fill="#F2CF93" stroke="none" />
        <path d="M4.40319 0L4.04759 0C4.00101 0 3.97212 0.0459673 3.97212 0.0884817L3.97212 3.72594L0.438831 0.048557C0.397212 0.00669008 0.373923 0 0.321306 0L0.0754746 0C0.0310524 0 0 0.0364717 0 0.0884817L0 4.46465C0 4.51451 0.0360122 4.55335 0.0819438 4.55335L0.418345 4.55335C0.469667 4.55335 0.506758 4.51602 0.506758 4.46465L0.506758 0.827411L4.05924 4.5048C4.10107 4.54645 4.12415 4.55335 4.17676 4.55335L4.40319 4.55335C4.44761 4.55335 4.47866 4.51688 4.47866 4.46465L4.47866 0.0884817C4.47866 0.0444566 4.45516 0 4.40319 0" transform="translate(92.43859 19.00174)" id="Fill-48" fill="#F2CF93" stroke="none" />
        <path d="M1.29148 0L0.0819438 0C0.0286803 0 0 0.0455357 0 0.0884817L0 0.386298C0 0.429028 0.0286803 0.474564 0.0819438 0.474564L0.873348 0.474564L0.873348 4.47134C0.873348 4.52465 0.918633 4.55335 0.961761 4.55335L1.29148 4.55335C1.33439 4.55335 1.37989 4.52465 1.37989 4.47134L1.37989 0.0820074C1.37989 0.0287026 1.33439 0 1.29148 0" transform="translate(104.8539 19.00174)" id="Fill-50" fill="#F2CF93" stroke="none" />
        <path d="M3.52336 0L0.0819437 0C0.0286803 0 0 0.0455357 0 0.0884817L0 0.386298C0 0.429028 0.0286803 0.474564 0.0819437 0.474564L3.00022 0.474564L0.725849 4.47242C0.705147 4.50717 0.705147 4.52249 0.705147 4.53609C0.705147 4.58939 0.743747 4.61788 0.780406 4.61788L1.18171 4.61788C1.22463 4.61788 1.25395 4.57968 1.26236 4.56716L3.57145 0.449746C3.59884 0.402268 3.60531 0.374429 3.60531 0.308607L3.60531 0.0884817C3.60531 0.0455357 3.57663 0 3.52336 0" transform="translate(109.6808 18.98825)" id="Fill-52" fill="#F2CF93" stroke="none" />
        <path d="M1.29148 0L0.0819438 0C0.0286803 0 0 0.0455357 0 0.0884817L0 0.386298C0 0.429028 0.0286803 0.474564 0.0819438 0.474564L0.873348 0.474564L0.873348 4.47134C0.873348 4.52465 0.918633 4.55335 0.961761 4.55335L1.29148 4.55335C1.33439 4.55335 1.37989 4.52465 1.37989 4.47134L1.37989 0.0820074C1.37989 0.0287026 1.33439 0 1.29148 0" transform="translate(116.4441 19.00174)" id="Fill-54" fill="#F2CF93" stroke="none" />
        <path d="M3.01855 1.80157C2.7145 1.54152 2.28278 1.39844 1.80255 1.39844C1.27487 1.39844 0.923593 1.57023 0.752374 1.68029L0.752374 0.47478L3.20638 0.47478C3.25964 0.47478 3.28832 0.429244 3.28832 0.386298L3.28832 0.0886975C3.28832 0.0455357 3.25964 0 3.20638 0L0.334245 0C0.291332 0 0.245831 0.0287026 0.245831 0.0820074L0.245831 2.16025C0.245831 2.21334 0.291332 2.24204 0.334245 2.24204L0.625145 2.24204C0.667842 2.24204 0.680565 2.23082 0.711402 2.20341C0.716577 2.19888 0.722615 2.19348 0.729084 2.18809C0.991952 1.97897 1.33547 1.87301 1.75079 1.87301C2.60581 1.87301 2.98858 2.44641 2.98858 3.01464C2.98858 3.72141 2.53551 4.14353 1.77667 4.14353C1.12414 4.14353 0.726065 3.88391 0.486488 3.30209C0.476784 3.27771 0.460611 3.24965 0.421364 3.24965C0.409719 3.24965 0.397212 3.25202 0.382548 3.25677L0.066202 3.36036C0.0340714 3.36856 0 3.39252 0 3.43546C0 3.54207 0.177257 3.94693 0.469452 4.2141C0.753668 4.4707 1.22786 4.6181 1.7702 4.6181C2.29227 4.6181 2.73692 4.4571 3.05607 4.15238C3.36013 3.8619 3.52747 3.45316 3.52747 3.0019C3.52747 2.50144 3.3515 2.08644 3.01855 1.80157" transform="translate(121.7791 19.02863)" id="Fill-56" fill="#F2CF93" stroke="none" />
      </g>
      <g id="Group-61" transform="translate(42.00671 0)">
        <path d="M0 0L41.3797 0L41.3797 15.907L0 15.907L0 0Z" transform="translate(0.1654894 0.01129609)" id="Clip-60" fill="none" stroke="none" />
        <g clip-path="url(#mask_2)">
          <path d="M31.8051 9.3215C27.0136 10.7998 23.5352 11.0398 19.4077 11.1132C23.5794 10.8216 26.9794 10.0993 31.4902 8.66508C33.2236 8.11387 35.0967 7.25474 36.599 6.49267C37.7767 5.89544 38.9076 5.3229 39.6821 5.0974C39.2682 5.32876 38.7454 5.65572 38.076 6.07806C36.3621 7.15935 34.0144 8.64018 31.8051 9.3215M34.8375 11.0385C34.5616 11.7165 33.9854 12.2999 33.1148 12.7852C33.6265 12.3779 34.0207 11.7487 34.2127 11.2289C34.6058 10.1629 34.2047 9.38175 33.9544 9.02571C34.1912 8.91485 34.4268 8.79938 34.6604 8.68014C34.8581 9.06567 35.248 10.029 34.8375 11.0385M33.2117 11.4219C33.4912 10.5632 33.1592 9.90848 32.8922 9.48383C33.1657 9.37694 33.4394 9.26126 33.7121 9.13826C33.9526 9.48864 34.2909 10.2708 33.7996 11.1925C33.4752 11.8016 32.9429 12.4248 32.0622 12.8771C32.5409 12.4955 33.0521 11.9125 33.2117 11.4219M32.1731 11.579C32.3784 10.8176 32.0598 10.2823 31.7949 9.86183C31.8528 9.84426 31.9089 9.82774 31.9672 9.80975C32.1915 9.74051 32.4167 9.66164 32.6423 9.57818C32.8658 9.93589 33.2019 10.6641 32.7864 11.4703C32.5097 12.007 31.9107 12.4846 31.1331 12.8902C31.5208 12.5528 32.0587 12.0054 32.1731 11.579M30.2235 12.9097C30.6719 12.5572 31.1597 11.8688 31.1784 11.4341C31.2068 10.7837 31.0425 10.5143 30.7937 10.1549C31.039 10.0863 31.2889 10.0137 31.5429 9.93798C31.7733 10.2928 32.0834 10.9586 31.7356 11.6152C31.4926 12.0731 30.8953 12.5503 30.2235 12.9097M29.5083 12.9557C29.7216 12.6984 30.1277 12.2673 30.2025 11.7964C30.3009 11.1826 30.0399 10.7488 29.7623 10.43C30.0115 10.3672 30.2655 10.2999 30.523 10.2296C30.7373 10.4814 30.9837 10.9546 30.8032 11.5065C30.6712 11.9114 30.0581 12.6423 29.5083 12.9557M28.8831 12.9195C29.1082 12.6658 29.3024 12.0449 29.2829 11.7843C29.2424 11.2333 29.0155 10.9308 28.7318 10.6747C28.9754 10.6206 29.2229 10.5626 29.4738 10.5013C29.7046 10.7333 30.0551 11.2077 29.8711 11.8326C29.7779 12.1493 29.2794 12.6555 28.8831 12.9195M27.5801 10.9101C27.8549 10.8588 28.1334 10.8036 28.4165 10.7433C28.6761 10.9182 28.9578 11.1849 28.9578 11.8083C28.9578 12.1474 28.7535 12.5484 28.5515 12.7564C28.5532 12.7281 28.5565 12.7001 28.5565 12.672C28.5515 11.787 27.9381 11.1828 27.5801 10.9101M17.1265 10.8398C17.649 10.8247 18.1358 10.7977 18.5846 10.7551C23.1245 10.3149 25.5286 9.40769 30.323 7.82833C31.4982 7.44112 33.4115 6.67989 34.4936 6.21508C36.3563 5.41578 38.2747 4.69869 39.3787 4.65559C38.5812 4.9085 37.4588 5.57581 36.2497 6.18893C34.7632 6.94263 33.1057 7.7936 31.4196 8.35757C26.7813 9.90932 22.7908 10.5996 18.2686 10.8475C17.8452 10.8703 17.4969 10.8599 17.1265 10.8398M18.3724 10.2867C22.8688 9.66227 28.8369 7.14513 32.6053 5.77914C35.2762 4.8106 37.4174 3.94603 38.9782 4.17739C37.8047 4.33805 35.9172 5.12815 34.1622 5.88143C33.0873 6.3431 31.834 6.92673 30.6858 7.34155C26.3316 8.91485 22.5649 9.99467 18.0831 10.4291C17.5881 10.476 17.1724 10.4551 16.6996 10.4199C17.2992 10.4017 17.854 10.3574 18.3724 10.2867M18.1598 9.81749C19.7931 9.52274 21.9013 8.92426 23.5068 8.37201C23.4897 8.51049 23.4496 8.63244 23.4037 8.73327C21.576 9.25519 19.7265 9.66457 17.8707 9.92208C17.431 9.98233 17.0513 9.99299 16.6462 9.9817C17.1798 9.95492 17.6876 9.90263 18.1598 9.81749M18.5675 5.05598C19.3711 5.16936 20.1201 5.29801 20.8418 5.4528C22.5537 5.82014 24.3585 6.16216 24.779 7.12295C24.9996 7.62563 24.9153 8.11199 24.873 8.28645C24.5744 8.38184 24.2751 8.47367 23.9749 8.56341C24.0621 8.31281 24.0898 8.01932 23.9325 7.61077C23.519 6.5366 21.176 5.45636 18.5675 5.05598M25.0982 6.9236C24.6873 5.82223 22.8959 5.36013 20.9811 4.9495C20.2235 4.78717 19.4391 4.65329 18.5959 4.53594C19.546 4.5897 20.4777 4.66187 21.4267 4.77253C23.418 5.00431 25.7382 5.44841 26.1055 6.63994C26.2861 7.22629 26.2403 7.63483 26.1875 7.84695C25.8606 7.96074 25.533 8.0714 25.2042 8.17893C25.2623 7.86347 25.3414 7.57626 25.0982 6.9236M22.0036 4.08932C24.2831 4.2071 26.3305 4.49034 27.1256 5.58668C27.674 6.34269 27.5548 7.17253 27.5162 7.36916C27.1527 7.50723 26.8717 7.61119 26.7316 7.65742C26.6577 7.68399 26.5832 7.70867 26.5093 7.73482C26.5448 7.6091 26.5559 7.32377 26.5054 6.97799C26.3368 5.81888 25.6777 4.74554 21.5162 4.26128C20.529 4.14601 19.562 4.07196 18.5759 4.01778C19.6886 4.01234 20.8125 4.02782 22.0036 4.08932M22.576 3.40528C25.1502 3.41804 27.5435 3.82198 28.3423 4.88695C28.9366 5.67768 28.8531 6.57363 28.8031 6.87339C28.4635 7.0056 28.1367 7.13195 27.8454 7.24365C27.8993 6.91795 27.9347 6.16216 27.3818 5.31139C26.6458 4.17865 24.5493 3.70379 22.0587 3.57535C20.8752 3.51406 19.759 3.49816 18.6563 3.50256C19.901 3.44106 21.1948 3.39901 22.576 3.40528M23.146 2.72082C26.0188 2.63234 28.5478 3.0026 29.5081 4.15689C30.2475 5.04594 30.0969 6.10442 30.0384 6.39101C29.733 6.51066 29.4194 6.63325 29.1115 6.75353C29.1845 6.35063 29.2387 5.46828 28.5827 4.58698C27.6772 3.37098 25.394 2.90428 22.6066 2.89048C21.2444 2.88357 19.9686 2.92415 18.742 2.98356C20.1199 2.86726 21.5656 2.76936 23.146 2.72082M23.7138 2.03595C26.9341 1.84601 29.471 2.2033 30.6092 3.46386C31.4521 4.39746 31.2841 5.57894 31.2098 5.93017C30.9463 6.03413 30.6524 6.14981 30.3425 6.27156C30.4296 5.80884 30.5089 4.7765 29.7335 3.8383C28.6594 2.53779 26.2442 2.11167 23.1566 2.20602C21.6317 2.25287 20.233 2.34554 18.8999 2.45599C20.3934 2.28885 21.969 2.13908 23.7138 2.03595M24.2803 1.35128C27.809 1.06176 30.5171 1.40818 31.8196 2.75806C32.783 3.75672 32.5446 5.06246 32.449 5.43963C32.4005 5.45887 32.3528 5.47812 32.3042 5.49736C32.2106 5.5346 31.9334 5.64442 31.5496 5.79608C31.6283 5.36474 31.6174 4.43155 31.3101 3.83809C30.6615 2.58674 28.8924 1.21614 23.7092 1.52198C22.0279 1.62113 20.5039 1.7638 19.0605 1.9232C20.6684 1.70711 22.3764 1.50712 24.2803 1.35128M24.8455 0.666402C28.6841 0.278569 31.503 0.631258 32.9394 2.0987C33.9682 3.15008 33.8241 4.43929 33.7194 4.93256C33.4171 5.052 33.1098 5.17542 32.7962 5.30073C32.9069 4.76625 33.0448 3.47913 32.0231 2.41332C30.614 0.942947 27.9633 0.534823 24.263 0.838144C22.4661 0.985202 20.845 1.17138 19.3176 1.37283C21.0141 1.11448 22.8224 0.870777 24.8455 0.666402M38.563 3.63079C37.3528 3.61029 35.9005 4.08619 34.2641 4.7194C34.3102 4.54159 34.3533 4.29098 34.3601 3.99728C36.0173 3.48457 37.4406 3.27998 38.563 3.63079M41.3797 4.95954C41.3797 4.95954 40.7954 4.52422 40.4517 4.16735C38.817 2.63757 36.8097 2.67355 34.3256 3.43583C34.248 2.91558 34.0313 2.32651 33.5426 1.76275C32.0938 0.0946942 28.8267 -0.250882 24.8184 0.154103C21.1439 0.525201 18.178 1.02474 15.3102 1.50712C10.6404 2.29367 6.61914 2.96704 1.27498 2.74676C4.40445 3.4308 7.88892 4.00293 10.6669 4.40583C20.1507 5.1566 23.0313 6.78198 23.4327 7.8049C23.4388 7.81975 23.4422 7.8344 23.4474 7.84904C21.8513 8.40736 19.73 9.23344 18.0623 9.31376C10.9512 9.65746 0 5.88478 0 5.88478C0 5.88478 4.36414 7.72353 6.34715 8.2854C8.33038 8.84707 14.5928 10.6208 14.5928 10.6208C13.4305 10.7484 6.59942 11.2287 3.22115 11.6972C8.68646 11.5027 10.3786 11.5696 15.7161 11.5403L16.6122 11.536C20.619 11.5171 23.5051 11.583 26.8411 11.0396L26.8385 11.041C27.2689 11.218 27.998 11.8012 28.0016 12.5246C28.0036 12.8925 27.0002 13.5577 26.2603 13.8521C25.0863 14.3194 19.836 15.8588 19.6136 15.9071C19.6136 15.9071 28.0515 14.8892 30.6983 14.229C33.2218 13.5994 34.7812 12.5873 35.3342 11.2195C35.8253 10.0041 35.3663 8.88661 35.1283 8.43518C36.3156 7.79946 37.4336 7.09513 38.3662 6.50669C39.3679 5.87473 41.1123 4.92544 41.3797 4.95954" transform="translate(0.1654894 0.01121707)" id="Fill-59" fill="#F2CF93" stroke="none" />
        </g>
      </g>
    </g>
  </g>
</svg>