<svg width="13" height="13" xmlns="http://www.w3.org/2000/svg" xmlns:xlink="http://www.w3.org/1999/xlink">
  <path d="M1 4.268C.988 2.495 2.206 1.043 3.715 1.033h.015c.81 0 1.573.42 2.098 1.152a.497.497 0 00.406.204h.004a.497.497 0 00.407-.208c.52-.746 1.283-1.176 2.097-1.18h.016c1.502 0 2.73 1.43 2.742 3.197.018 2.65-4.028 6.202-5.199 7.174C5.12 10.392 1.017 6.802 1 4.268M8.758 0h-.022C7.792.006 6.912.4 6.23 1.113A3.531 3.531 0 003.71.033C1.648.047-.016 1.95 0 4.274c.023 3.428 5.75 7.946 5.993 8.136a.5.5 0 00.616.001c.241-.188 5.914-4.654 5.891-8.219C12.484 1.875 10.808 0 8.758 0" fill="#FFF"/>
</svg>
