<svg width="145" height="100" xmlns="http://www.w3.org/2000/svg" xmlns:xlink="http://www.w3.org/1999/xlink">
  <defs>
    <path id="a" d="M.077.195h29.604v26.35H.077z"/>
    <path id="c" d="M.165.011h41.38v15.907H.165z"/>
  </defs>
  <g fill="none" fill-rule="evenodd">
    <path fill="#001545" d="M0 55.705h144.295V22.148H0z"/>
    <g fill="#FFF">
      <path d="M28.28 45.3a2.39 2.39 0 01-.028-.229c-.008-.12-.468-11.668-.501-12.646-.031-.929.45-1.487 1.321-1.527a4.93 4.93 0 01.309-.004v-.535l-5.025-.006-4.817 12.5-4.74-12.5-5.094.006v.539h.083c.553 0 1.267.234 1.595.571.298.308.233.773.216 1.254l-.294 12.609c-.058 1.317-1.114 1.652-1.75 1.652h-.082v.55h4.793v-.55h-.103c-.497 0-1.843-.297-1.785-1.745l.266-11.477 5.4 13.785.785-.005 5.78-14.893.198 13.121c.002.334-.104.609-.319.824-.289.287-.715.39-.99.39h-.09v.508h.005v.043h6.832v-.551h-.083c-.696 0-1.67-.554-1.882-1.684M37.731 40.49c1.292-3.424 2.786-7.174 2.845-7.322l2.432 7.31-5.277.012zm13.247 6.494h-.187c-1.094 0-2.085-.581-2.544-1.468-.03-.06-.057-.12-.082-.183L42.621 30.36h-4.379v.539h.078c.528 0 1.186.123 1.42.478.017.025.03.052.043.078.104.246.053.537-.076.831l-4.84 12.838c-.578 1.212-1.429 1.861-3.02 1.861h-.166v.55h6.184v-.55h-.317c-.135 0-1.32-.017-1.742-.614a.476.476 0 01-.047-.085c-.065-.205.034-.425.14-.71.094-.26.73-1.911 1.55-4.09l5.739-.01 1.441 4.119c.151.382.134.747-.054 1.02-.16.233-.613.368-.915.37h-.13v.508h.02v.042h7.452v-.508h-.024v-.042zM70.76 46.98c-.804 0-1.794-.486-2.406-1.15a2.737 2.737 0 01-.207-.26l-5.34-7.186.087-.053c2.447-1.465 3.897-2.922 3.933-4.331.02-.792-.307-1.554-.945-2.204-.008-.009-.018-.016-.026-.024l-.008-.008c-1.026-1.041-3.06-1.405-5.524-1.405h-7.098v.506h.025v.032h.123c.517.013.98.243 1.29.593.228.273.366.614.366.982v12.632c-.013 1.147-.85 1.866-2.188 1.88h-.05v.551h7.735v-.551h-.2c-.561 0-1.01-.164-1.336-.489a1.622 1.622 0 01-.123-.14c-.258-.352-.391-.828-.385-1.399V31.063h.38c2.59 0 3.501.198 4.124.842.04.044.08.09.118.137.471.583.75 1.314.729 1.909-.112 3.049-3.796 5.217-4.448 5.575l6.088 7.969h.002l.032.043 5.467-.003v-.554h-.037l-.178-.001zM85.473 30.36H70.52l-.533 3.557h.556l.006-.028c.287-1.928 1.403-2.562 3.257-2.562h1.83v-.007h.62v13.678c0 1.243-.888 1.986-2.38 1.986h-.07v.548l.039.003h8.328v-.551h-.115c-.813 0-1.445-.222-1.854-.625-.314-.332-.483-.778-.483-1.32v-13.72l.72.001v.007h1.83c.906 0 1.635.153 2.178.534.54.4.888 1.037 1.031 1.995l.007.06h.558l-.53-3.557h-.043zM102.01 43.967l-.004.028c-.288 1.928-1.404 2.561-3.255 2.561h-4.673v-7.628l3.535-.002c.278.005.53.075.742.204.345.24.563.656.561 1.242v.091h.567v-3.818H98.916l-.01.072c.007.649-.537 1.201-1.289 1.213h-3.54v-6.598h3.943c.7.019 1.29.138 1.76.397.656.386 1.072 1.056 1.231 2.127l.004.06h.572l-.53-3.557H88.539v.538h.08c.471.001.894.112 1.23.315.103.067.198.142.282.226.315.319.478.753.47 1.255v12.303c0 1.189-1.293 1.988-2.502 1.988h-.115v.551h14.071l.537-3.568H102.01zM117.936 43.995c-.287 1.928-1.403 2.561-3.256 2.561h-3.922V32.668c0-1.411.804-1.77 2.082-1.77h.148v-.538h-8.173v.535h.08c.303.002.944-.024 1.493.25.483.264.879.777.879 1.774l.007 11.836c0 1.457-.819 2.229-2.37 2.229h-.089v.551H117.996l.527-3.567h-.582l-.005.027zM134.734 43.967h-.513l-.002.028c-.29 1.928-1.404 2.561-3.258 2.561h-3.848l-.001-13.889c0-1.41.802-1.77 2.083-1.77h.147v-.538h-8.183v.536H121.249c.282.002.859-.02 1.38.198.527.247.98.76.98 1.826l.008 11.836c0 1.457-.82 2.229-2.37 2.229h-.088v.557h.004l7.979-.006h5.146l.534-3.568h-.088z"/>
    </g>
    <g transform="translate(57.268 72.943)">
      <mask id="b" fill="#fff">
        <use xlink:href="#a"/>
      </mask>
      <path d="M29.138 15.411c-.243.806-.7 1.216-1.36 1.216a1.924 1.924 0 01-.823-.2v-.002l-.081-.041a.626.626 0 00-.012-.006l-.016-.008c-.302-.19-.932-.992-1.318-2.33-.034-.2-.095-.51-.18-.82l-.004-.014-.012-.047h-.004a9.405 9.405 0 01-.127-1.697c.042-3.012.652-4.19 1.178-4.88.098-.128.197-.234.302-.324l.08-.064c.27-.213.573-.322.898-.322.192 0 .392.037.598.108.651.228.865 1.042.83 1.406-.015.184-.13 1.096-.896 1.096l-.02-.001c-.619-.013-.773-.725-.797-.868l-.058-.402-.016-.12-.078.093-.262.31c-.05.06-1.22 1.481-1.024 4.02.195 2.565 1.03 3.539 1.038 3.548l.37.445.11.133-.015-.172-.052-.58a.661.661 0 01.161-.529c.157-.172.424-.275.715-.275.328 0 .624.133.79.357.175.236.204.571.085.97zm-2.433 2.583a9.626 9.626 0 01-.042.232l-.01.05c-.089.48-.182.975-.023 1.46a.937.937 0 01-.575-.511l-.394-.665-.115-.193.015.224.05.767c.04.27.09 1.02-.146 1.297-.066.077-.14.158-.219.243l-.008.009c-.357.39-.802.877-.815 1.433a5.8 5.8 0 00-.001.19c-.207-.336-.303-.633-.274-.849l.074-.524.021-.156-.112.11-.38.37c-.04.037-.973.92-1.879 1.072a2.048 2.048 0 00-1.262.71c-.092-.288-.147-.68.021-1.062l.093-.213.027-.063-.068-.012-.229-.039c-.147-.031-.88-.212-1.12-.796-.254-.617-.265-1.477.317-1.906.19-.142.395-.216.593-.216a.795.795 0 01.695.409c.26.454.075.877-.125 1.153l-.204.278-.06.083.102.003.347.011h.057c.232 0 1.058-.023 1.935-.33 1.13-.396 1.894-1.089 2.268-2.06.315-.815.46-1.766.434-2.83.321.569.651.922.873 1.073.086.284.213.806.14 1.248zm-11.869 7.77c-1.347-1.75-3.59-3.227-4.575-3.827.273-.189.469-.424.584-.701.032-.074.061-.153.087-.238l3.859 2.81.03.023.033-.022 3.953-2.813c.027.094.058.182.093.264.109.262.29.489.54.674-2.384 1.303-4.244 3.408-4.604 3.83zm-5.546-3.92l-.004.001-.01.003-.22.034-.067.011.027.064.093.214c.165.382.108.774.015 1.062a2.028 2.028 0 00-1.26-.718c-.926-.16-1.862-1.072-1.871-1.081l-.38-.37-.112-.11.021.155.071.524c.028.214-.07.51-.278.846v-.19c-.01-.559-.457-1.051-.816-1.446a9.916 9.916 0 01-.216-.245c-.224-.265-.238-1.075-.195-1.362l-.027-.812-.01-.295-.095.28-.26.765a.937.937 0 01-.574.5c.162-.486.071-.98-.017-1.46a8.31 8.31 0 00-.023-.13l-.025-.153c-.074-.443.061-.975.152-1.265.28-.199.596-.595.871-1.086-.033 1.082.107 2.046.418 2.869.375.988 1.152 1.69 2.31 2.089.872.3 1.68.323 1.906.323h.03l.35-.008.102-.003-.06-.083-.203-.28c-.2-.277-.381-.702-.117-1.153a.808.808 0 01.69-.405c.202 0 .403.073.597.217.578.435.565 1.294.308 1.908-.244.582-.976.76-1.12.79zm-6.404-5.528h-.001l-.068.037a1.9 1.9 0 01-.835.205c-.669 0-1.126-.411-1.364-1.223-.117-.4-.086-.734.09-.969.166-.22.46-.352.788-.352.294 0 .56.104.717.278.121.135.216.472.194.694l-.09.409-.046.213.14-.167.374-.444c.035-.04.85-1.017 1.055-3.541.21-2.548-.953-3.965-1.003-4.025l-.259-.311-.077-.093-.017.12-.06.4c-.007.034-.147.853-.8.864h-.02C.867 8.41.732 7.57.708 7.313c-.031-.365.189-1.178.84-1.403.2-.07.396-.104.582-.104.344 0 .662.118.944.35l.038.03c.114.1.216.21.31.335.523.693 1.126 1.873 1.152 4.886a9.241 9.241 0 01-.17 1.886c-.025.09-.064.25-.108.468-.398 1.522-1.113 2.373-1.396 2.547l-.015.008zm1.13-10.431v.665a4.892 4.892 0 00-.217-.313 2.876 2.876 0 00-.221-.257c.095-.03.24-.066.439-.095zm.88 7.34c.105-.587.156-1.2.15-1.823-.021-2.548-.454-3.862-.918-4.669V5.87a5.39 5.39 0 01.405-.032c.24-.012.455-.04.652-.084v13.014a2.735 2.735 0 01-.245-.487c-.614-1.613-.37-3.497-.169-4.477a8.28 8.28 0 00.09-.395l.031-.122.017-.058-.014-.004zm1.459-5.188v2.12l-.233.231h.233v9.434a3.082 3.082 0 01-1.059-.891V5.724c.287-.079.535-.197.76-.364.027.208.1.377.219.502.024.026.052.047.08.068V7.8h-.237l.237.237zM9.972 7.8V4.337l.04-.03.036-.027c.385-.29.446-.35.747-.971a.772.772 0 01.217-.241V7.8h-1.04zm-.856-.846a.423.423 0 11-.001.846.423.423 0 01.001-.846zm.587-1.108l-.327-.5c-.006-.062-.04-.513.417-.87l.07-.055v2.64a.811.811 0 00-1.06-.432V5.447c.122.1.217.15.245.163l.585.313.185.1-.115-.177zM8.48 5.099c.073.1.145.18.213.248v1.341A.802.802 0 008.428 7.8h-.794V4.81c.266-.148.506-.293.705-.452-.023.273-.013.53.141.742zm-2.015 4.947V8.147l.95.95-.95.95zm1.059.342v9.856a4.847 4.847 0 01-1.06-.366v-9.49h1.06zm-.33-5.203c.027-.106.1-.19.231-.26l.099-.055v1.107l-.04-.057-.155-.226c-.003-.005-.188-.275-.135-.509zm-.322.91c.096 0 .2-.012.311-.035l.268-.057.073-.015V7.8h-1.06V6a.87.87 0 00.408.095zM9.84 10H7.634v-.002h-.11V10H7.06l.904-.903-.909-.908h3.703v1.81h-.92zm-.67 5.924a.423.423 0 11-.001.846.423.423 0 01.001-.846zm.685-.475l.002.47a.82.82 0 00-.223-.236 1.026 1.026 0 00.221-.234zm-.2-5.06h.186l.002.807a75.437 75.437 0 00-.187-.808zm-1.3 3.443c-.053-.896.542-2.958.686-3.444h.215c.098.409.43 1.816.593 2.75l.004 1.378c-.087.333-.23.64-.398.81-.094.097-.19.146-.284.146-.436 0-.756-.645-.815-1.64zm-.025 6.537a6.216 6.216 0 01-.696-.102v-9.879h1.002c-.19.65-.722 2.556-.668 3.467.055.92.312 1.568.713 1.849a.808.808 0 00-.321.642c0 .269.132.505.333.653v1.759a1.383 1.383 0 00-.363 1.611zm1.174-1.91a1.245 1.245 0 00-.7.216v-1.609a.796.796 0 001.055-.297l.005 1.744a1.353 1.353 0 00-.36-.055zm.464-2.24l-.003-.94c.246-.43.372-1.012.363-1.438-.008-.384-.192-1.315-.373-2.143l-.004-1.31h1.06v9.445c-.078-.441-.29-.813-.624-1.064a1.627 1.627 0 00-.412-.224l-.006-2.079c.005-.039.012-.079.012-.12a.824.824 0 00-.013-.127zm2.213-11.7v7.418h-.42l.42.42v1.753l-.416.415h.416v6.799l-1.058-.771V10.388h.024V7.8h-.024V2.987c.266-.18.653-.347 1.058-.441V3.96a1.344 1.344 0 000 .559zm1.249-1.61v-.324c.144.07.27.174.346.337l.005.01a1.774 1.774 0 00-.295-.025c-.019 0-.037.002-.056.003zM2.513 4.25c-.645-.591-.853-1.386-.57-2.183.25-.705.798-1.143 1.427-1.143.493.002.838.118 1.03.346.175.21.195.485.194.672a1.382 1.382 0 01-1.289 1.374l-.302.019-.09.005.047.077.159.258c.129.194.593.808 1.382.91.072.009.145.013.218.013.578 0 1.175-.29 1.777-.863C8.63 1.698 10.433.666 11.853.666c.05 0 .1.002.149.004.724.039 1.352.367 1.867.976 1.152 1.357.913 2.496.305 3.11l-.015.014a.854.854 0 01-.508.314l-.01.002-.01.002a.847.847 0 01-.756-.238.864.864 0 01.61-1.471c.205 0 .35.036.47.117l.24.16.07.048.013-.085.041-.287c.01-.069.04-.273-.115-.608-.218-.47-.686-.723-1.352-.73h-.02c-.988 0-2.18.538-2.46 1.108-.265.543-.271.548-.606.8l-.024.018-.24.182a1.511 1.511 0 00-.554.829 1.39 1.39 0 01-.088-.11c-.092-.126-.06-.39-.021-.725.015-.126.034-.294.047-.478l.017-.697.005-.204-.105.175-.363.606c-.192.42-.596.662-1.239 1.012-.25.136-.407.328-.464.57a.994.994 0 00.036.535.27.27 0 01-.157-.076c-.145-.154-.103-.538-.06-.7l.003-.007v-.006l.015-.551.005-.153-.1.116-.326.384c-.376.43-.781.705-1.642.743-.402.02-.687.067-.873.11.104-.276.259-.343.26-.343l.012-.002.002-.004.493-.33.137-.093-.165-.007-.563-.023h-.011l-.053.001c-.18 0-.805-.03-1.237-.426zm12.814.832c.076.098.17.179.27.25v6.605h-.15a.804.804 0 00.122-.423.812.812 0 00-.81-.81c-.066 0-.13.01-.19.024V5.021c.139-.153.26-.33.352-.522.105.217.244.417.406.582zm.38 6.855V5.404c.125.072.26.125.405.152l.063.012v-.001a1.266 1.266 0 00.56-.041v6.41h-1.028zm0 7.284c.18-.4.271-.878.264-1.243-.007-.305-.125-.959-.264-1.63v-1.822h1.028v7.368l-1.028.732V19.22zm-.948-8.13a.423.423 0 11-.002.847.423.423 0 01.002-.846zm-1.032-5.54c.283-.053.537-.2.73-.411v5.623a.805.805 0 00-.387 1.175h-.64V5.57c.016 0 .032.003.049.003.061 0 .123-.004.184-.013v.001l.064-.01zM12.291 14v-1.533l.767.766-.767.767zm1.028.525v7.629l-1.028-.75v-6.88h1.028zM12.291 3.65V2.523c.18-.036.362-.058.536-.058h.02c.148.002.316.022.472.074v.38c-.452.056-.833.34-1.028.73zm.248 1.53c.213.214.486.346.78.382v6.375h-1.028V4.834c.063.126.145.243.248.346zm.164 8.956l.904-.903-.908-.907 3.703-.001v1.811h-3.699zm2.595.389h.298v1.305a74.307 74.307 0 00-.298-1.305zm-.021 5.295c.033-.027.067-.053.098-.086a1.56 1.56 0 00.221-.3v.852a.81.81 0 00-.32-.466zm-.709 1.433a.794.794 0 00.245.042.81.81 0 00.783-.615v2.024l-.77.548-.258-.188v-1.811zm-.178-.77a.423.423 0 11.846 0 .423.423 0 01-.846 0zm.293-5.958h.216c.13.541.671 2.84.684 3.46.01.53-.207 1.194-.485 1.477-.095.097-.19.146-.285.146-.436 0-.755-.644-.815-1.64-.053-.896.541-2.958.685-3.443zm-1.072 3.466c.055.921.312 1.57.713 1.85a.809.809 0 00-.322.642c0 .32.187.594.456.726v1.774l-1.028-.749v-7.71h.848c-.19.65-.721 2.557-.667 3.467zm3.124-15.493v.47a1.315 1.315 0 00-.369-.053c-.107 0-.204.008-.294.023l.006-.012c.128-.272.394-.386.657-.428zm1.138 5.736V9.96l-.43.43h.43v10.694l-1.028.732V5.488c.497-.194.849-.674.85-1.236 0-.567-.353-1.05-.85-1.245v-.522c.056-.005.11-.008.163-.009h.015c.276 0 .571.054.85.138v5.187h-.433l.433.433zm2.278-1.613a.802.802 0 00-.401 1.18h-.628V3.465c.246.501.319.569.675.839.072.053.155.116.254.196.036.029.069.059.1.088v2.032zm.286.333a.423.423 0 11-.001.846.423.423 0 01.001-.846zm-.176-.89V4.711a.938.938 0 01.202.674l-.157.526-.045.151zm.13-.095l.407-.332c.046-.022.259-.131.491-.412V7.8h-.163a.806.806 0 00-.865-1.214v-.51l.13-.107zM17.984 7.8V2.649c.466.156.87.394 1.028.61V7.8h-1.028zm0 2.048V8.345l.753.752-.753.752zm.727 10.638l-.727.518V10.388h1.028v8.785c-.238.352-.347.806-.3 1.314zM18.382 10l.904-.903-.908-.908h3.703v1.81h-3.699zm2.595.388h.312v1.37a72.543 72.543 0 00-.312-1.37zm-.021 5.295c.033-.026.066-.053.098-.085.089-.091.166-.203.235-.325v.946a.812.812 0 00-.333-.536zm-.695 2.803v-1.365a.81.81 0 00.23.037.81.81 0 00.798-.684v2.566a1.27 1.27 0 00-.784-.529 1.303 1.303 0 00-.244-.025zm-.192-2.14a.423.423 0 11.846.001.423.423 0 01-.846 0zm.293-5.958h.216c.13.542.67 2.841.683 3.46.011.531-.206 1.194-.484 1.478-.095.097-.191.146-.285.146-.436 0-.756-.645-.815-1.64-.053-.896.54-2.958.685-3.444zm-1.072 3.467c.054.91.305 1.551.697 1.838v.023a.807.807 0 00.164 1.364v1.414a1.492 1.492 0 00-1.029.536v-8.642h.835c-.19.65-.722 2.556-.667 3.467zm2.11 5.378v-4.18c.17-.393.257-.857.25-1.212-.007-.296-.118-.916-.25-1.564v-1.889h1.028v9.843c-.387.1-.744.149-1.009.17a1.383 1.383 0 00-.02-1.168zm.975-13.174l.053.008V7.8h-1.029V5.075c.118-.198.127-.434.11-.683.246.201.559.38.908.571l.011.007v.88l-.089.124-.051.072.087.013zm.163-.37v-.638a.344.344 0 01.108.175c.041.177-.059.379-.108.464zm.13.414c.056.008.11.012.162.012a.811.811 0 00.737-.43V19.77c-.335.197-.69.336-1.029.432V6.084l.13.02zm2.037-.28v12.765a2.848 2.848 0 01-1.028 1.116V5.414l.011-.035c.271.21.628.363 1.017.445zm.354 8.29c.06.346.124.814.15 1.344v.888c-.032.654-.141 1.345-.389 1.99l-.005.01v-5.448c.055.418.135.824.244 1.215zm-.244-4.242V5.845c.163.028.331.045.5.046.213.003.386.019.529.04v.589c-.419.616-.85 1.561-1.029 3.351zm1.429-3.847a2.78 2.78 0 00-.24.271l-.05.069v-.415c.128.024.224.052.29.075zM15.99 1.652c.519-.605 1.148-.93 1.873-.967.045-.002.091-.003.137-.003 1.417 0 3.217 1.041 5.351 3.096.58.56 1.17.845 1.754.845.06 0 .12-.003.178-.009.838-.086 1.345-.737 1.439-.866l.181-.266.053-.078-.094-.006-.317-.022a1.384 1.384 0 01-1.283-1.38c.003-.472.144-1.012 1.218-1.012.64.002 1.186.443 1.434 1.15.279.797.067 1.59-.582 2.18-.43.389-1.049.419-1.229.419a1.01 1.01 0 01-.066-.002l-.537-.008-.16-.002.126.098.457.36.007.005.007.003c.002 0 .152.064.258.33a3.805 3.805 0 00-.876-.096c-.706-.01-1.407-.318-1.596-.702l-.398-.554-.112-.156.014.192.05.636c.007.126-.01.512-.178.7a.931.931 0 00.006-.416c-.057-.241-.213-.433-.463-.571-.64-.353-1.042-.597-1.229-1.012l-.002-.005-.003-.004-.407-.564-.115-.16.018.197.059.65c.01.145.024.296.045.475l.001.017c.037.34.063.587-.026.708a1.592 1.592 0 01-.09.11 1.512 1.512 0 00-.55-.831c-.104-.082-.19-.147-.263-.202-.333-.254-.339-.258-.602-.804-.275-.574-1.468-1.118-2.454-1.12h-.018c-.667.003-1.136.253-1.355.723-.108.229-.148.434-.12.61l.039.289.011.086.072-.049.243-.163c.12-.08.263-.115.464-.115a.863.863 0 11-.16 1.709l-.014-.003a.872.872 0 01-.501-.313l-.013-.016c-.608-.62-.841-1.76.318-3.111zm12.272 11.962h-.01c-.422 0-.805.156-1.052.427-.061.067-.112.14-.154.216-.245-.525-.537-1.414-.643-2.781-.121-1.59.34-2.713.663-3.287.153.317.474.751 1.091.762l.026.002c.913 0 1.31-.82 1.374-1.523.053-.584-.274-1.59-1.146-1.895a2.236 2.236 0 00-.74-.132c-.337 0-.656.085-.95.251a1.607 1.607 0 00-.175-.488c.322-.054.748-.186 1.1-.504.796-.719 1.055-1.697.712-2.683-.315-.903-1.031-1.464-1.869-1.466-1.4 0-1.695.806-1.697 1.482a1.85 1.85 0 001.278 1.764c-.192.168-.478.35-.837.385a1.3 1.3 0 01-.13.007c-.455 0-.934-.24-1.424-.712C21.425 1.267 19.568.21 18.003.21c-.055 0-.109.001-.163.004-.858.041-1.6.421-2.208 1.13a4.24 4.24 0 00-.705 1.111 4.195 4.195 0 00-.698-1.114C13.624.629 12.884.245 12.028.2a3.353 3.353 0 00-.182-.005c-1.562 0-3.418 1.046-5.674 3.197-.512.488-1 .735-1.455.735-.052 0-.104-.003-.154-.01-.365-.046-.643-.255-.804-.41a1.852 1.852 0 001.306-1.765c.001-.678-.29-1.487-1.691-1.49-.84 0-1.556.558-1.874 1.457-.351.983-.097 1.962.696 2.687.352.32.777.454 1.098.509a1.6 1.6 0 00-.18.504 1.904 1.904 0 00-.988-.273c-.238 0-.484.043-.73.128C.522 5.764.19 6.768.24 7.352c.062.705.456 1.529 1.363 1.53h.027c.62-.01.943-.442 1.096-.757.32.575.776 1.7.646 3.292-.113 1.365-.41 2.252-.657 2.776a1.052 1.052 0 00-.153-.216c-.247-.274-.634-.432-1.06-.434-.482 0-.916.201-1.171.539-.187.251-.367.695-.164 1.387.398 1.355 1.304 1.56 1.808 1.561.224 0 .454-.036.677-.105-.067.3-.122.704-.061 1.08.008.053.017.106.027.158l.024.135c.106.576.197 1.072-.115 1.52l-.171.249-.051.073.089.011.3.037c.039.004.081.007.126.007.14 0 .485-.026.818-.254.012.32.074.712.285.962.069.08.146.167.228.256.321.355.686.758.693 1.138.008.455-.037.782-.058.902v.004l-.001.012-.116.586-.034.177.126-.129.423-.434c.007-.006.639-.651.83-1.336.446.358 1.096.784 1.77.9.805.14 1.106.72 1.158.835l.13.333.04.099.056-.09.192-.302c.02-.032.485-.772.269-1.612.047-.015.094-.032.142-.05.828.492 3.51 2.174 4.864 4.093l.141.2.043.06.044-.059.15-.194c.02-.026 2.172-2.688 4.92-4.087.06.024.12.047.175.064-.201.772.18 1.475.26 1.61l.191.308.057.09.039-.098.135-.333c.03-.07.327-.688 1.16-.828.709-.121 1.394-.59 1.776-.892.164.598.662 1.167.816 1.333l.43.443.124.13-.033-.178-.114-.597a4.82 4.82 0 01-.055-.907c.008-.376.369-.772.687-1.121l.012-.013.046-.05c.065-.071.128-.14.184-.206.174-.204.271-.527.29-.96a1.488 1.488 0 00.945.252l.299-.036.088-.01-.05-.074-.17-.248c-.31-.453-.217-.948-.107-1.522l.021-.122a7.5 7.5 0 00.03-.17c.063-.372.01-.775-.054-1.075.223.068.443.103.657.103.508 0 1.411-.202 1.816-1.55.208-.691.03-1.136-.157-1.388-.253-.342-.69-.546-1.168-.546z" fill="#F2CF93" mask="url(#b)"/>
    </g>
    <path d="M55.186 64.496l-.272-.142a.091.091 0 00-.132.043c-.308.65-.844.978-1.594.978-1.064 0-1.807-.74-1.807-1.802 0-1.116.716-1.867 1.782-1.867.641 0 1.185.3 1.53.844a.088.088 0 00.074.041c.016 0 .031-.004.045-.012l.284-.194a.092.092 0 00.044-.056.088.088 0 00-.015-.069c-.399-.664-1.135-1.06-1.969-1.06-.656 0-1.248.235-1.666.664-.418.428-.648 1.032-.648 1.703 0 .698.236 1.289.681 1.709.415.39.993.606 1.627.606.963 0 1.68-.436 2.073-1.262.024-.048.009-.098-.037-.124M60.45 65.375c-.486 0-.938-.185-1.273-.521a1.842 1.842 0 01-.527-1.313c0-1.097.724-1.834 1.8-1.834 1.061 0 1.801.754 1.801 1.834 0 .513-.178.98-.502 1.313-.327.336-.788.521-1.298.521m0-4.176c-.638 0-1.226.23-1.655.644-.441.428-.685 1.03-.685 1.698 0 .667.244 1.27.685 1.697.43.415 1.017.644 1.655.644.638 0 1.225-.229 1.654-.644.442-.427.685-1.03.685-1.697s-.243-1.27-.685-1.698c-.429-.415-1.016-.644-1.654-.644M70.028 63.524h-1.32a.09.09 0 00-.088.088v.298c0 .043.029.088.082.088h.895v.62c-.288.481-.84.757-1.516.757-.53 0-1.006-.176-1.34-.495-.344-.328-.525-.78-.525-1.307 0-1.116.716-1.867 1.781-1.867.642 0 1.185.3 1.53.844.027.04.079.053.12.029l.283-.194a.093.093 0 00.044-.056.09.09 0 00-.014-.069c-.4-.664-1.136-1.06-1.97-1.06-.656 0-1.248.235-1.666.664-.417.428-.647 1.032-.647 1.703 0 .7.236 1.292.684 1.709.42.39 1.012.606 1.668.606.876 0 1.644-.418 2.054-1.119.02-.035.02-.056.02-.09v-1.061c0-.044-.023-.088-.075-.088M77.794 61.264h-.356c-.046 0-.075.046-.075.089v3.637l-3.534-3.677c-.041-.042-.065-.049-.117-.049h-.246c-.044 0-.075.037-.075.089v4.376c0 .05.036.089.082.089h.336a.086.086 0 00.088-.09v-3.636l3.553 3.677c.042.042.065.049.117.049h.227c.044 0 .075-.037.075-.09v-4.375c0-.044-.023-.089-.075-.089M85.093 64.12h-2.686l1.34-2.235 1.346 2.234zm-1.098-2.805c-.022-.037-.045-.05-.086-.05h-.298c-.041 0-.065.013-.087.05l-2.652 4.375a.114.114 0 00-.021.065c0 .046.032.062.062.062h.382c.096 0 .112-.029.15-.1l.678-1.123h3.254l.676 1.12.002.004c.038.07.054.1.15.1h.408c.03 0 .062-.017.062-.063a.116.116 0 00-.02-.064l-2.66-4.376zM93.411 64.496l-.271-.142a.094.094 0 00-.047-.013.092.092 0 00-.084.056c-.31.65-.846.978-1.595.978-1.064 0-1.807-.74-1.807-1.802 0-1.116.716-1.867 1.781-1.867.642 0 1.186.3 1.53.844a.088.088 0 00.075.041c.015 0 .03-.004.044-.012l.284-.194a.093.093 0 00.044-.056.089.089 0 00-.014-.069c-.4-.664-1.136-1.06-1.97-1.06-.656 0-1.247.235-1.666.664-.417.428-.647 1.032-.647 1.703 0 .698.235 1.289.681 1.709.415.39.992.606 1.626.606.963 0 1.68-.436 2.073-1.262.025-.048.01-.098-.037-.124M13.262 80.08H9.497c-.043 0-.088.029-.088.082v4.39c0 .053.045.081.088.081h.33c.043 0 .088-.028.088-.082v-2.268h2.823c.053 0 .082-.045.082-.088v-.298c0-.044-.024-.088-.076-.088H9.915v-1.254h3.347c.053 0 .082-.046.082-.089v-.298c0-.042-.029-.088-.082-.088M17.767 84.19c-.487 0-.94-.184-1.274-.52a1.842 1.842 0 01-.527-1.313c0-1.097.724-1.835 1.8-1.835 1.061 0 1.801.755 1.801 1.835 0 .513-.178.98-.502 1.313-.327.336-.788.52-1.298.52m0-4.175c-.638 0-1.226.229-1.655.644-.442.428-.685 1.03-.685 1.698 0 .667.243 1.27.685 1.697.429.415 1.017.644 1.655.644.638 0 1.225-.229 1.654-.644.442-.427.685-1.03.685-1.697 0-.668-.243-1.27-.685-1.698-.429-.415-1.016-.644-1.654-.644M27.398 80.08h-.356c-.047 0-.075.046-.075.088v3.638l-3.534-3.677c-.041-.042-.064-.049-.117-.049h-.246c-.044 0-.075.036-.075.088v4.377c0 .05.036.088.082.088h.336a.086.086 0 00.088-.088v-3.638l3.553 3.678c.042.041.065.048.117.048h.227c.044 0 .075-.036.075-.088v-4.377c0-.044-.023-.088-.075-.088M33.066 84.159h-1.73v-3.604h1.516c.64 0 1.105.134 1.424.41.336.291.5.731.5 1.346 0 .615-.17 1.09-.503 1.412-.295.285-.713.436-1.207.436m-.22-4.079h-1.928c-.043 0-.088.029-.088.082v4.39c0 .053.045.081.088.081h2.148c.62 0 1.183-.21 1.582-.59.436-.416.667-1.014.667-1.732 0-1.439-.877-2.23-2.47-2.23M42.162 80.08h-3.765c-.043 0-.089.029-.089.082v4.39c0 .053.046.081.089.081h3.765c.053 0 .082-.045.082-.088v-.298c0-.043-.03-.088-.082-.088h-3.347v-1.876h2.823c.053 0 .082-.045.082-.088v-.298c0-.044-.024-.088-.076-.088h-2.83v-1.254h3.348c.053 0 .082-.046.082-.089v-.298c0-.042-.03-.088-.082-.088M39.9 79.635l.033.09c.012.031.02.053.055.053.01 0 .019-.003.03-.006.007-.002.014-.005.025-.007l1.442-.434c.056-.014.092-.056.092-.108a.192.192 0 00-.013-.062l-.091-.227c-.03-.065-.066-.097-.113-.097-.02 0-.049 0-.083.02l-1.352.674c-.027.013-.038.03-.038.055 0 .01.004.021.008.034l.005.015M49.256 80.08h-3.765c-.042 0-.088.029-.088.082v4.39c0 .053.046.081.088.081h3.765c.054 0 .082-.045.082-.088v-.298c0-.043-.028-.088-.082-.088H45.91v-1.876h2.822c.054 0 .082-.045.082-.088v-.298c0-.044-.023-.088-.075-.088h-2.83v-1.254h3.347c.054 0 .082-.046.082-.089v-.298c0-.042-.028-.088-.082-.088M98.099 80.076h-3.765c-.043 0-.088.028-.088.082v4.389c0 .053.045.082.088.082h3.765c.053 0 .082-.046.082-.089v-.297c0-.043-.029-.089-.082-.089h-3.347V82.28h2.823c.053 0 .082-.046.082-.089v-.298c0-.044-.024-.088-.076-.088h-2.829V80.55H98.1c.053 0 .082-.045.082-.088v-.298c0-.043-.029-.088-.082-.088M106.238 80.076h-.356c-.046 0-.075.046-.075.088v3.638l-3.534-3.678c-.041-.042-.065-.048-.117-.048h-.246c-.044 0-.075.036-.075.088v4.376c0 .05.036.089.082.089h.336a.086.086 0 00.088-.089v-3.637l3.553 3.677c.042.042.065.049.117.049h.227c.044 0 .075-.037.075-.089v-4.376c0-.044-.023-.088-.075-.088M115.541 80.076h-1.21c-.052 0-.081.045-.081.088v.298c0 .043.029.088.082.088h.791v3.997c0 .053.045.082.089.082h.33c.042 0 .088-.029.088-.082v-4.39c0-.053-.046-.081-.089-.081M122.6 80.062h-3.441c-.054 0-.082.046-.082.089v.297c0 .043.028.089.082.089h2.918l-2.274 3.998c-.021.034-.021.05-.021.063 0 .053.039.082.075.082h.402c.042 0 .072-.038.08-.05l2.31-4.118a.232.232 0 00.033-.141v-.22c0-.043-.029-.089-.082-.089M127.132 80.076h-1.21c-.053 0-.082.045-.082.088v.298c0 .043.029.088.082.088h.791v3.997c0 .053.046.082.089.082h.33c.043 0 .088-.029.088-.082v-4.39c0-.053-.045-.081-.088-.081M134.194 81.904c-.304-.26-.736-.403-1.216-.403-.528 0-.88.172-1.05.282v-1.206h2.453c.054 0 .082-.045.082-.088v-.298c0-.043-.028-.089-.082-.089h-2.872c-.043 0-.088.03-.088.082v2.079c0 .053.045.081.088.081h.291c.043 0 .056-.01.086-.038l.018-.015c.263-.21.607-.316 1.022-.316.855 0 1.238.574 1.238 1.142 0 .707-.453 1.129-1.212 1.129-.653 0-1.05-.26-1.29-.841-.01-.025-.026-.053-.066-.053a.126.126 0 00-.038.007l-.317.104c-.032.008-.066.032-.066.075 0 .107.177.511.47.779.284.256.758.404 1.3.404.522 0 .967-.161 1.286-.466.304-.29.472-.7.472-1.15 0-.501-.176-.916-.51-1.201" fill="#F2CF93"/>
    <g transform="translate(51.007)">
      <mask id="d" fill="#fff">
        <use xlink:href="#c"/>
      </mask>
      <path d="M31.97 9.333c-4.79 1.478-8.27 1.718-12.397 1.791 4.172-.291 7.572-1.014 12.083-2.448 1.733-.55 3.606-1.41 5.109-2.172 1.177-.597 2.308-1.17 3.083-1.395-.414.231-.937.558-1.607.98-1.713 1.082-4.061 2.562-6.27 3.244m3.032 1.717c-.276.678-.852 1.261-1.723 1.746.512-.407.906-1.036 1.098-1.556.393-1.066-.008-1.847-.258-2.203.237-.11.472-.226.706-.346.198.386.587 1.35.177 2.359m-1.626.383c.28-.859-.052-1.513-.32-1.938.274-.107.548-.223.82-.346.241.35.58 1.133.088 2.055-.324.609-.857 1.232-1.737 1.684.478-.381.99-.964 1.15-1.455m-1.04.157c.206-.761-.113-1.296-.378-1.717l.173-.052c.224-.07.45-.148.675-.232.223.358.56 1.086.144 1.892-.277.537-.876 1.015-1.653 1.42.387-.337.925-.884 1.04-1.31m-1.95 1.33c.448-.353.936-1.041.955-1.476.028-.65-.136-.92-.385-1.279.245-.068.495-.141.75-.217.23.355.54 1.02.192 1.677-.243.458-.84.936-1.512 1.295m-.715.046c.213-.257.62-.689.694-1.16.098-.613-.163-1.047-.44-1.366.249-.063.503-.13.76-.2.215.252.461.725.28 1.277-.131.405-.744 1.136-1.294 1.449m-.625-.036c.225-.254.419-.875.4-1.136-.041-.55-.268-.853-.552-1.109.244-.054.491-.112.742-.173.231.232.582.706.398 1.33-.094.318-.592.824-.988 1.088m-1.303-2.01c.274-.051.553-.106.836-.166.26.174.541.441.541 1.065 0 .339-.204.74-.406.948.002-.029.005-.057.005-.085-.005-.885-.618-1.489-.976-1.762m-10.454-.07c.523-.015 1.01-.042 1.458-.085 4.54-.44 6.944-1.347 11.738-2.926 1.176-.388 3.089-1.149 4.171-1.614 1.863-.799 3.781-1.516 4.885-1.56-.797.254-1.92.921-3.129 1.534-1.486.754-3.144 1.605-4.83 2.169-4.638 1.552-8.629 2.242-13.15 2.49-.424.023-.773.012-1.143-.008m1.246-.553c4.496-.625 10.464-3.142 14.233-4.508 2.67-.968 4.812-1.833 6.373-1.601-1.174.16-3.061.95-4.816 1.704-1.075.461-2.329 1.045-3.477 1.46-4.354 1.573-8.12 2.653-12.602 3.087-.495.047-.911.026-1.384-.009a15.96 15.96 0 001.673-.133m-.213-.47c1.634-.294 3.742-.893 5.347-1.445a1.24 1.24 0 01-.103.361 40.42 40.42 0 01-5.533 1.19c-.44.06-.82.07-1.224.059.533-.027 1.041-.08 1.513-.164m.408-4.762c.804.114 1.553.242 2.274.397 1.712.367 3.517.71 3.937 1.67.221.503.137.99.095 1.164a50.38 50.38 0 01-.899.277c.088-.251.115-.544-.042-.953-.414-1.074-2.757-2.154-5.365-2.555m6.53 1.868c-.41-1.102-2.202-1.564-4.116-1.974a33.137 33.137 0 00-2.386-.414c.95.054 1.882.126 2.831.237 1.991.232 4.312.676 4.679 1.867.18.587.135.995.082 1.207-.327.114-.655.225-.983.332.058-.315.137-.603-.106-1.255M22.169 4.1c2.28.117 4.327.4 5.122 1.497.548.756.43 1.586.39 1.782a24.29 24.29 0 01-.784.289c-.074.026-.148.05-.222.077.035-.126.046-.411-.004-.757-.169-1.159-.828-2.232-4.99-2.717a47.745 47.745 0 00-2.94-.243c1.113-.005 2.237.01 3.428.072m.572-.684c2.575.012 4.968.416 5.767 1.481.594.79.51 1.687.46 1.987l-.957.37c.054-.326.09-1.082-.464-1.932-.736-1.133-2.832-1.608-5.323-1.736a60.367 60.367 0 00-3.402-.073 71.995 71.995 0 013.92-.097m.57-.685c2.872-.088 5.401.282 6.362 1.436.739.89.588 1.948.53 2.234l-.927.363a2.78 2.78 0 00-.529-2.167c-.905-1.216-3.188-1.683-5.976-1.696a71.581 71.581 0 00-3.865.093 81.319 81.319 0 014.404-.263m.568-.685c3.22-.19 5.758.168 6.896 1.428.843.934.675 2.115.6 2.466l-.867.342c.087-.463.166-1.495-.609-2.433-1.074-1.301-3.49-1.727-6.577-1.633-1.525.047-2.924.14-4.257.25a90.786 90.786 0 014.814-.42m.567-.685c3.528-.289 6.237.057 7.54 1.407.962.999.724 2.305.628 2.682l-.144.058-.755.298c.079-.431.068-1.364-.24-1.958-.648-1.251-2.417-2.622-7.6-2.316-1.682.1-3.206.242-4.649.401a99.609 99.609 0 015.22-.572m.565-.684C28.85.29 31.669.642 33.105 2.11c1.029 1.051.885 2.34.78 2.834l-.923.368c.11-.535.248-1.822-.773-2.887-1.41-1.47-4.06-1.879-7.76-1.576a99.193 99.193 0 00-4.946.535c1.697-.258 3.505-.502 5.528-.706m13.717 2.964c-1.21-.02-2.662.455-4.298 1.089.046-.178.089-.429.096-.723 1.657-.512 3.08-.717 4.202-.366m2.817 1.329s-.584-.436-.928-.792c-1.635-1.53-3.642-1.494-6.126-.732a3.257 3.257 0 00-.783-1.673C32.26.106 28.992-.24 24.984.165c-3.675.371-6.64.871-9.508 1.353-4.67.787-8.691 1.46-14.036 1.24 3.13.684 6.614 1.256 9.392 1.659 9.484.75 12.365 2.376 12.766 3.4.006.014.01.029.015.043-1.596.559-3.718 1.385-5.385 1.465C11.117 9.669.165 5.896.165 5.896s4.365 1.839 6.348 2.4l8.245 2.336c-1.162.128-7.993.608-11.371 1.076 5.465-.194 7.157-.127 12.495-.156l.896-.005c4.006-.019 6.893.047 10.229-.496l-.003.001c.43.177 1.16.76 1.163 1.484.002.368-1.001 1.033-1.741 1.327-1.174.468-6.425 2.007-6.647 2.055 0 0 8.438-1.018 11.085-1.678 2.523-.63 4.083-1.641 4.636-3.01.49-1.215.032-2.332-.206-2.784 1.187-.635 2.305-1.34 3.238-1.928 1.001-.632 2.746-1.581 3.013-1.547" fill="#F2CF93" mask="url(#d)"/>
    </g>
  </g>
</svg>
