<svg width="260" height="104" xmlns="http://www.w3.org/2000/svg" xmlns:xlink="http://www.w3.org/1999/xlink">
  <defs>
    <path id="a" d="M0 0h259.91v103.513H0z"/>
  </defs>
  <g fill="none" fill-rule="evenodd">
    <mask id="b" fill="#fff">
      <use xlink:href="#a"/>
    </mask>
    <path d="M199.771 60.658c-30.096 9.62-51.944 11.181-77.87 11.66 26.204-1.898 47.559-6.599 75.892-15.931 10.887-3.587 22.653-9.178 32.09-14.137 7.396-3.887 14.5-7.612 19.364-9.08-2.6 1.506-5.883 3.633-10.088 6.382-10.765 7.036-25.511 16.673-39.388 21.106m19.047 11.173c-1.733 4.412-5.353 8.209-10.82 11.367 3.213-2.65 5.69-6.745 6.895-10.128 2.47-6.937-.05-12.02-1.622-14.337a142.61 142.61 0 004.435-2.248c1.241 2.508 3.69 8.777 1.112 15.346m-10.212 2.496c1.756-5.588-.33-9.85-2.007-12.613a107.158 107.158 0 005.15-2.248c1.51 2.28 3.636 7.37.55 13.367-2.038 3.964-5.381 8.02-10.913 10.962 3.007-2.483 6.218-6.276 7.22-9.468m-6.524 1.022c1.29-4.955-.711-8.439-2.375-11.175.364-.114.716-.222 1.082-.339a79.911 79.911 0 004.24-1.507c1.404 2.328 3.515 7.067.906 12.313-1.738 3.493-5.501 6.6-10.385 9.24 2.435-2.196 5.814-5.758 6.532-8.532m-12.245 8.659c2.816-2.294 5.88-6.774 5.997-9.603.179-4.232-.853-5.985-2.416-8.324 1.541-.446 3.11-.918 4.706-1.411 1.447 2.308 3.395 6.641 1.21 10.914-1.526 2.98-5.277 6.085-9.497 8.424m-4.493.3c1.34-1.675 3.89-4.48 4.36-7.545.619-3.994-1.02-6.817-2.764-8.892 1.565-.408 3.16-.846 4.778-1.304 1.346 1.64 2.894 4.718 1.76 8.31-.829 2.635-4.68 7.391-8.134 9.43m-3.927-.235c1.415-1.651 2.634-5.692 2.512-7.388-.255-3.585-1.68-5.554-3.462-7.22 1.53-.352 3.085-.73 4.661-1.128 1.45 1.51 3.65 4.597 2.495 8.663-.585 2.06-3.716 5.355-6.206 7.073m-8.184-13.076c1.726-.334 3.476-.693 5.253-1.085 1.631 1.138 3.4 2.873 3.4 6.93 0 2.206-1.283 4.816-2.551 6.169.01-.184.03-.366.03-.549-.03-5.76-3.883-9.69-6.132-11.465m-65.66-.458c3.282-.098 6.34-.273 9.159-.551 28.515-2.864 43.616-8.768 73.73-19.046 7.382-2.52 19.399-7.473 26.195-10.498 11.7-5.2 23.75-9.867 30.685-10.148-5.01 1.646-12.06 5.988-19.654 9.978-9.337 4.905-19.748 10.443-30.339 14.112-29.133 10.098-54.198 14.59-82.602 16.204-2.66.148-4.847.08-7.174-.05m7.826-3.6c28.242-4.063 65.728-20.443 89.398-29.332 16.776-6.303 30.225-11.93 40.029-10.424-7.371 1.046-19.226 6.187-30.25 11.09-6.752 3.004-14.624 6.801-21.836 9.5-27.349 10.239-51.007 17.266-79.158 20.093-3.11.305-5.72.169-8.69-.06 3.766-.118 7.25-.407 10.507-.867m-1.335-3.053c10.258-1.918 23.5-5.813 33.585-9.407A8.289 8.289 0 01147 56.83c-11.48 3.397-23.097 6.06-34.753 7.736-2.762.392-5.147.462-7.691.388 3.351-.174 6.54-.514 9.507-1.068m2.56-30.985c5.048.738 9.752 1.575 14.285 2.582 10.753 2.39 22.09 4.616 24.73 10.868 1.386 3.271.856 6.436.59 7.572-1.875.62-3.755 1.218-5.64 1.802.547-1.63.721-3.54-.267-6.2-2.597-6.99-17.314-14.019-33.698-16.624m41.02 12.153c-2.58-7.167-13.833-10.174-25.86-12.846-4.758-1.056-9.685-1.928-14.982-2.691 5.968.35 11.82.82 17.781 1.54 12.507 1.508 27.081 4.397 29.388 12.151 1.134 3.816.847 6.474.515 7.855-2.053.74-4.111 1.46-6.176 2.16.365-2.053.862-3.922-.666-8.169M138.207 26.61c14.318.767 27.177 2.61 32.172 9.744 3.444 4.92 2.695 10.32 2.453 11.6-2.283.898-4.049 1.575-4.928 1.875-.464.173-.932.334-1.397.504.224-.818.293-2.675-.024-4.925-1.06-7.543-5.199-14.527-31.338-17.679-6.2-.75-12.274-1.232-18.468-1.584 6.989-.036 14.048.065 21.53.465m3.595-4.45c16.169.082 31.201 2.71 36.219 9.64 3.732 5.146 3.208 10.977 2.894 12.927-2.133.86-4.186 1.683-6.015 2.41.339-2.12.56-7.038-2.912-12.574-4.623-7.371-17.792-10.461-33.435-11.297-7.434-.4-14.445-.503-21.37-.474 7.817-.4 15.944-.674 24.619-.633m3.58-4.454c18.045-.576 33.93 1.834 39.961 9.345 4.645 5.785 3.699 12.673 3.331 14.538-1.918.779-3.888 1.577-5.822 2.36.459-2.622.8-8.364-3.321-14.1-5.688-7.912-20.029-10.95-37.537-11.039-8.556-.045-16.57.22-24.274.606 8.655-.757 17.736-1.394 27.662-1.71m3.567-4.457c20.226-1.236 36.161 1.09 43.31 9.292 5.295 6.076 4.24 13.764 3.773 16.05-1.656.676-3.501 1.429-5.448 2.221.547-3.011 1.045-9.729-3.825-15.834-6.747-8.463-21.916-11.236-41.31-10.622-9.578.305-18.364.908-26.737 1.627 9.38-1.088 19.277-2.063 30.237-2.734m3.558-4.455c22.164-1.884 39.174.37 47.355 9.154 6.051 6.499 4.554 14.996 3.953 17.45l-.909.376c-.588.242-2.33.957-4.74 1.944.494-2.807.426-8.88-1.504-12.741-4.074-8.144-15.186-17.062-47.742-15.072-10.56.645-20.133 1.573-29.199 2.61 10.1-1.406 20.827-2.707 32.786-3.721m3.55-4.457c24.11-2.524 41.816-.229 50.839 9.32 6.462 6.842 5.557 15.232 4.899 18.442-1.899.777-3.83 1.58-5.799 2.395.696-3.478 1.561-11.853-4.856-18.789-8.85-9.568-25.5-12.224-48.742-10.25-11.286.957-21.468 2.168-31.063 3.48 10.656-1.682 22.015-3.268 34.722-4.598m86.16 19.29c-7.6-.133-16.722 2.964-27.001 7.084.29-1.157.56-2.787.603-4.699 10.41-3.336 19.349-4.667 26.399-2.384m17.692 8.646s-3.67-2.833-5.829-5.155c-10.268-9.955-22.876-9.72-38.479-4.76-.487-3.386-1.848-7.219-4.918-10.888-9.1-10.854-29.62-13.103-54.797-10.468-23.08 2.415-41.709 5.666-59.723 8.805-29.33 5.118-54.589 9.5-88.156 8.067C27.665 22.325 49.551 26.048 67 28.67c59.568 4.886 77.662 15.462 80.183 22.119.038.097.06.192.093.287-10.026 3.633-23.35 9.009-33.825 9.532C68.786 62.844 0 38.294 0 38.294S27.41 50.26 39.867 53.916l51.792 15.197c-7.3.83-50.208 3.956-71.427 7.005 34.328-1.266 44.957-.83 78.482-1.021l5.629-.029c25.167-.122 43.295.307 64.248-3.23l-.016.01c2.704 1.151 7.283 4.946 7.306 9.654.012 2.394-6.29 6.723-10.938 8.638-7.374 3.041-40.351 13.059-41.748 13.373 0 0 53-6.624 69.624-10.92 15.85-4.097 25.645-10.683 29.119-19.584 3.084-7.91.201-15.18-1.293-18.119 7.457-4.136 14.48-8.72 20.337-12.549 6.291-4.112 17.248-10.29 18.928-10.068" fill="#F2CF93" mask="url(#b)"/>
  </g>
</svg>
